<svg width="1076" height="240" viewBox="0 0 1076 240" fill="none" xmlns="http://www.w3.org/2000/svg">
<path d="M254.596 215.548C251.585 215.548 249.112 214.581 247.177 212.645C245.349 210.817 244.435 208.29 244.435 205.065C244.435 201.516 245.618 198.344 247.983 195.548C250.456 192.753 253.79 190.548 257.983 188.935C262.177 187.323 266.854 186.462 272.015 186.355C277.607 186.355 283.037 187.108 288.306 188.613C293.682 190.118 299.058 191.892 304.435 193.935C309.811 195.978 315.295 197.753 320.886 199.258C326.478 200.871 332.23 201.677 338.144 201.677C344.274 201.677 349.274 200.495 353.144 198.129C357.123 195.871 360.618 192.161 363.628 187L368.628 189.581C365.403 198.29 360.994 204.796 355.403 209.097C349.919 213.398 343.144 215.548 335.08 215.548C329.596 215.548 324.596 214.742 320.08 213.129C315.671 211.516 311.478 209.473 307.499 207C303.628 204.634 299.811 202.269 296.048 199.903C292.284 197.538 288.467 195.548 284.596 193.935C280.725 192.323 276.532 191.516 272.015 191.516C268.36 191.516 265.241 192.108 262.661 193.29C260.08 194.473 258.79 195.871 258.79 197.484C258.79 198.344 259.166 199.312 259.919 200.387C260.779 201.57 261.585 202.806 262.338 204.097C263.091 205.387 263.467 206.839 263.467 208.452C263.467 210.495 262.661 212.161 261.048 213.452C259.435 214.849 257.284 215.548 254.596 215.548ZM280.08 187.968L271.37 186.839C274.811 185.871 277.876 184.688 280.564 183.29C283.36 182 286.048 180.548 288.628 178.935C291.209 177.323 294.005 175.817 297.015 174.419C300.026 173.022 303.467 171.946 307.338 171.194L307.499 176.194C303.736 177.161 300.456 178.29 297.661 179.581C294.972 180.978 292.284 182.376 289.596 183.774C286.908 185.172 283.736 186.57 280.08 187.968ZM289.273 179.258C278.198 179.258 268.575 176.946 260.403 172.323C252.23 167.591 245.886 160.871 241.37 152.161C236.854 143.344 234.596 132.86 234.596 120.71C234.596 108.667 236.908 98.129 241.532 89.0968C246.155 80.0645 252.553 73.0753 260.725 68.129C269.005 63.0753 278.575 60.5484 289.435 60.5484C300.403 60.5484 309.972 62.914 318.144 67.6452C326.424 72.2688 332.768 78.9355 337.177 87.6452C341.693 96.3548 343.951 106.839 343.951 119.097C343.951 131.14 341.639 141.677 337.015 150.71C332.499 159.742 326.101 166.785 317.822 171.839C309.65 176.785 300.134 179.258 289.273 179.258ZM289.757 173.29C297.177 173.29 303.628 171.032 309.112 166.516C314.704 162 319.005 155.71 322.015 147.645C325.026 139.581 326.532 130.226 326.532 119.581C326.532 108.72 324.865 99.3656 321.532 91.5161C318.306 83.5591 313.843 77.4301 308.144 73.129C302.446 68.7204 296.048 66.5161 288.951 66.5161C281.532 66.5161 275.026 68.7742 269.435 73.2903C263.951 77.8065 259.65 84.0968 256.532 92.1613C253.521 100.226 252.015 109.581 252.015 120.226C252.015 130.978 253.682 140.333 257.015 148.29C260.349 156.247 264.865 162.43 270.564 166.839C276.263 171.14 282.661 173.29 289.757 173.29ZM387.634 94.2581V135.71H371.989V114.581C371.989 109.849 371.075 106.516 369.247 104.581C367.527 102.645 364.247 101.462 359.409 101.032L353.925 100.548V94.2581C355.968 94.3656 357.849 94.4731 359.57 94.5806C361.398 94.5806 363.226 94.5806 365.054 94.5806C369.57 94.5806 373.71 94.4194 377.473 94.0968C381.237 93.6667 384.624 93.0753 387.634 92.3226V94.2581ZM387.634 135.71V150.871C387.634 157.645 388.978 162.699 391.667 166.032C394.355 169.366 398.333 171.032 403.602 171.032C409.194 171.032 414.14 169.258 418.441 165.71C422.742 162.054 426.452 156.624 429.57 149.419L430.376 152.968C427.151 161.892 422.796 168.613 417.312 173.129C411.935 177.538 405.538 179.742 398.118 179.742C389.731 179.742 383.28 177.161 378.763 172C374.247 166.731 371.989 159.258 371.989 149.581V135.71H387.634ZM424.892 177V135.71H440.538V156.839C440.538 161.57 441.398 164.903 443.118 166.839C444.946 168.667 448.28 169.796 453.118 170.226L458.602 170.71V177C456.559 176.892 454.624 176.839 452.796 176.839C451.075 176.731 449.247 176.677 447.312 176.677C442.903 176.677 438.763 176.839 434.892 177.161C431.129 177.591 427.796 178.183 424.892 178.935V177ZM440.538 94.2581V135.71H424.892V114.419C424.892 109.688 424.086 106.409 422.473 104.581C420.968 102.753 418.011 101.516 413.602 100.871L410.376 100.548V94.2581C412.312 94.3656 413.978 94.4731 415.376 94.5806C416.882 94.5806 418.441 94.5806 420.054 94.5806C424.032 94.5806 427.742 94.4194 431.183 94.0968C434.624 93.6667 437.742 93.0753 440.538 92.3226V94.2581ZM479.028 135.71V114.258C479.028 109.527 478.114 106.247 476.286 104.419C474.458 102.484 471.179 101.247 466.448 100.71L460.964 100.226V94.0968C463.007 94.2043 464.889 94.3118 466.609 94.4194C468.329 94.4194 470.157 94.4194 472.093 94.4194C476.609 94.4194 480.749 94.2581 484.512 93.9355C488.276 93.5054 491.663 92.914 494.673 92.1613V94.0968V135.71H479.028ZM486.77 176.516C481.716 176.516 477.2 176.57 473.222 176.677C469.243 176.785 465.157 176.892 460.964 177V170.71L466.609 170.226C471.233 169.903 474.458 168.828 476.286 167C478.114 165.065 479.028 161.785 479.028 157.161V135.71H494.673V157.161C494.673 161.785 495.534 165.065 497.254 167C499.082 168.828 502.308 169.903 506.932 170.226L512.738 170.71V177C508.544 176.892 504.458 176.785 500.48 176.677C496.501 176.57 491.932 176.516 486.77 176.516ZM486.77 74.9032C483.759 74.9032 481.125 73.8817 478.867 71.8387C476.716 69.6882 475.641 67.0538 475.641 63.9355C475.641 60.9247 476.716 58.3441 478.867 56.1935C481.125 54.043 483.759 52.9677 486.77 52.9677C489.889 52.9677 492.523 54.043 494.673 56.1935C496.824 58.3441 497.899 60.9247 497.899 63.9355C497.899 67.0538 496.824 69.6882 494.673 71.8387C492.523 73.8817 489.889 74.9032 486.77 74.9032ZM556.634 179.258C548.892 179.258 542.118 177.538 536.312 174.097C530.613 170.548 526.204 165.548 523.086 159.097C520.075 152.538 518.57 144.796 518.57 135.871C518.57 126.839 520.183 119.043 523.409 112.484C526.634 105.817 531.204 100.71 537.118 97.1613C543.032 93.5054 550.021 91.6774 558.086 91.6774C564.108 91.6774 569.43 92.5914 574.054 94.4194C578.677 96.2473 582.333 98.7742 585.021 102C587.817 105.118 589.215 108.72 589.215 112.806C589.215 116.462 588.086 119.473 585.828 121.839C583.677 124.097 580.882 125.226 577.441 125.226C574.753 125.226 572.548 124.473 570.828 122.968C569.215 121.462 568.409 119.527 568.409 117.161C568.409 115.118 568.839 113.344 569.699 111.839C570.667 110.333 571.581 108.935 572.441 107.645C573.409 106.355 573.892 105.065 573.892 103.774C573.892 102.054 572.71 100.656 570.344 99.5806C567.978 98.5054 564.914 97.9677 561.151 97.9677C552.763 97.9677 546.366 101.086 541.957 107.323C537.548 113.452 535.344 122.376 535.344 134.097C535.344 145.817 537.495 154.796 541.796 161.032C546.204 167.161 552.548 170.226 560.828 170.226C566.097 170.226 570.72 168.882 574.699 166.194C578.785 163.398 582.118 159.312 584.699 153.935L590.505 157.161C587.817 164.151 583.516 169.581 577.602 173.452C571.688 177.323 564.699 179.258 556.634 179.258ZM620.38 176.516C615.326 176.516 610.81 176.57 606.831 176.677C602.853 176.785 598.767 176.892 594.573 177V170.71L600.218 170.226C604.842 169.903 608.068 168.828 609.896 167C611.724 165.065 612.638 161.785 612.638 157.161V135.71H628.283V157.161C628.283 161.785 629.036 165.118 630.541 167.161C632.154 169.097 635.003 170.226 639.089 170.548L640.863 170.71V177C637.53 176.892 634.251 176.785 631.025 176.677C627.906 176.57 624.358 176.516 620.38 176.516ZM612.638 135.71V72.4839C612.638 67.7527 611.724 64.4731 609.896 62.6452C608.068 60.7097 604.788 59.5269 600.057 59.0968L594.573 58.6129V52.3226C596.616 52.4301 598.498 52.5376 600.218 52.6452C601.939 52.6452 603.767 52.6452 605.702 52.6452C610.218 52.6452 614.358 52.4839 618.122 52.1613C621.885 51.7312 625.272 51.1398 628.283 50.3871V52.3226V135.71H612.638ZM654.734 177V170.71C659.251 170.172 662.046 169.204 663.122 167.806C664.197 166.409 663.928 164.097 662.315 160.871L655.38 146.677C653.229 142.376 650.917 139.419 648.444 137.806C646.079 136.194 642.853 135.387 638.767 135.387H625.541V129.097H636.67C640.541 129.097 643.659 128.613 646.025 127.645C648.39 126.57 650.81 124.634 653.283 121.839L657.476 117C659.627 114.634 661.079 112.484 661.831 110.548C662.584 108.505 662.584 106.785 661.831 105.387C661.186 103.882 659.788 102.699 657.638 101.839C655.595 100.978 652.799 100.495 649.251 100.387V94.0968C651.939 94.2043 655.111 94.3118 658.767 94.4194C662.53 94.5269 666.562 94.5806 670.863 94.5806C673.874 94.5806 676.616 94.5806 679.089 94.5806C681.67 94.4731 683.982 94.4194 686.025 94.4194C688.175 94.3118 690.165 94.2043 691.993 94.0968V100.387C688.229 101.032 684.949 102 682.154 103.29C679.358 104.473 676.831 105.978 674.573 107.806C672.423 109.634 670.111 111.946 667.638 114.742L652.476 131.677V127.968C655.487 128.398 658.014 129.151 660.057 130.226C662.208 131.301 664.143 132.968 665.863 135.226C667.584 137.484 669.412 140.602 671.347 144.581L677.638 157C679.358 160.548 681.132 163.29 682.96 165.226C684.788 167.054 686.993 168.344 689.573 169.097C692.154 169.849 695.433 170.387 699.412 170.71V177C695.326 176.892 691.939 176.839 689.251 176.839C686.562 176.731 684.251 176.677 682.315 176.677C680.38 176.57 678.444 176.516 676.509 176.516C673.39 176.516 670.326 176.57 667.315 176.677C664.304 176.677 660.111 176.785 654.734 177ZM747.731 177C745.581 177 742.624 176.946 738.86 176.839C735.097 176.624 731.333 176.516 727.57 176.516C724.344 176.516 721.011 176.57 717.57 176.677C714.129 176.677 710.903 176.731 707.892 176.839C704.882 176.839 702.355 176.892 700.312 177V170.71L706.763 170.226C710.312 169.796 712.946 169.204 714.667 168.452C716.495 167.591 717.731 166.301 718.376 164.581C719.021 162.753 719.344 160.172 719.344 156.839V82.9677C719.344 79.6344 719.021 77.1075 718.376 75.3871C717.731 73.5591 716.495 72.2151 714.667 71.3548C712.946 70.4946 710.312 69.9032 706.763 69.5807L700.312 69.0968V62.8065C702.355 62.8065 704.882 62.8602 707.892 62.9677C710.903 63.0753 714.129 63.1828 717.57 63.2903C721.011 63.2903 724.344 63.2903 727.57 63.2903C731.333 63.2903 735.097 63.2366 738.86 63.129C742.624 62.914 745.581 62.8065 747.731 62.8065H751.602C772.032 62.8065 787.409 67.4301 797.731 76.6774C808.161 85.9247 813.376 99.5269 813.376 117.484C813.376 130.065 810.903 140.817 805.957 149.742C801.011 158.559 793.86 165.333 784.505 170.065C775.258 174.688 764.075 177 750.957 177H747.731ZM749.667 170.871C765.688 170.871 777.355 166.785 784.667 158.613C792.086 150.441 795.796 137.484 795.796 119.742C795.796 101.892 792.14 88.9892 784.828 81.0323C777.624 73.0753 765.903 69.0968 749.667 69.0968H735.634V157.161C735.634 161.032 735.957 163.935 736.602 165.871C737.355 167.806 738.699 169.151 740.634 169.903C742.677 170.548 745.688 170.871 749.667 170.871ZM840.974 135.71V114.258C840.974 109.527 840.06 106.247 838.232 104.419C836.404 102.484 833.124 101.247 828.393 100.71L822.909 100.226V94.0968C824.952 94.2043 826.834 94.3118 828.554 94.4194C830.275 94.4194 832.103 94.4194 834.038 94.4194C838.554 94.4194 842.694 94.2581 846.457 93.9355C850.221 93.5054 853.608 92.914 856.619 92.1613V94.0968V135.71H840.974ZM848.716 176.516C843.662 176.516 839.146 176.57 835.167 176.677C831.189 176.785 827.103 176.892 822.909 177V170.71L828.554 170.226C833.178 169.903 836.404 168.828 838.232 167C840.06 165.065 840.974 161.785 840.974 157.161V135.71H856.619V157.161C856.619 161.785 857.479 165.065 859.199 167C861.027 168.828 864.253 169.903 868.877 170.226L874.683 170.71V177C870.49 176.892 866.404 176.785 862.425 176.677C858.447 176.57 853.877 176.516 848.716 176.516ZM848.716 74.9032C845.705 74.9032 843.07 73.8817 840.812 71.8387C838.662 69.6882 837.587 67.0538 837.587 63.9355C837.587 60.9247 838.662 58.3441 840.812 56.1935C843.07 54.043 845.705 52.9677 848.716 52.9677C851.834 52.9677 854.468 54.043 856.619 56.1935C858.769 58.3441 859.845 60.9247 859.845 63.9355C859.845 67.0538 858.769 69.6882 856.619 71.8387C854.468 73.8817 851.834 74.9032 848.716 74.9032ZM904.387 176.516C899.334 176.516 894.818 176.57 890.839 176.677C886.861 176.785 882.775 176.892 878.581 177V170.71L884.226 170.226C888.85 169.903 892.076 168.828 893.904 167C895.731 165.065 896.645 161.785 896.645 157.161V135.71H912.291V157.161C912.291 161.785 913.043 165.118 914.549 167.161C916.162 169.097 919.065 170.226 923.258 170.548L925.678 170.71V177C922.129 176.892 918.742 176.785 915.516 176.677C912.291 176.57 908.581 176.516 904.387 176.516ZM896.645 135.71V114.258C896.645 109.527 895.731 106.247 893.904 104.419C892.076 102.484 888.796 101.247 884.065 100.71L878.581 100.226V94.0968C880.624 94.2043 882.506 94.3118 884.226 94.4194C885.947 94.4194 887.775 94.4194 889.71 94.4194C894.226 94.4194 898.366 94.2581 902.129 93.9355C905.893 93.5054 909.28 92.914 912.291 92.1613V94.0968V135.71H896.645ZM950.516 135.71V121.194C950.516 114.204 949.119 108.989 946.323 105.548C943.635 102 939.549 100.226 934.065 100.226C928.366 100.226 923.312 102 918.904 105.548C914.495 109.097 910.731 114.527 907.613 121.839L906.645 118.452C910.086 109.419 914.495 102.699 919.871 98.2903C925.355 93.8817 931.914 91.6774 939.549 91.6774C948.043 91.6774 954.602 94.3118 959.226 99.5806C963.85 104.849 966.162 112.43 966.162 122.323V135.71H950.516ZM958.42 176.516C954.441 176.516 950.839 176.57 947.613 176.677C944.495 176.785 941.269 176.892 937.936 177V170.71L939.71 170.548C943.796 170.226 946.592 169.097 948.097 167.161C949.71 165.118 950.516 161.785 950.516 157.161V135.71H966.162V157.161C966.162 161.785 967.076 165.065 968.904 167C970.731 168.828 973.904 169.903 978.42 170.226L984.226 170.71V177C980.033 176.892 975.947 176.785 971.968 176.677C967.99 176.57 963.473 176.516 958.42 176.516ZM1028.12 179.258C1020.38 179.258 1013.61 177.538 1007.8 174.097C1002.1 170.548 997.694 165.495 994.575 158.935C991.457 152.376 989.898 144.634 989.898 135.71C989.898 126.677 991.457 118.882 994.575 112.323C997.694 105.656 1002.21 100.548 1008.12 97C1014.04 93.4516 1021.03 91.6774 1029.09 91.6774C1036.08 91.6774 1042.16 93.0215 1047.32 95.7097C1052.48 98.3979 1056.4 102.645 1059.09 108.452C1061.89 114.258 1063.18 121.839 1062.96 131.194H1000.22L1000.06 125.065H1046.83C1046.94 119.796 1046.35 115.118 1045.06 111.032C1043.77 106.946 1041.73 103.72 1038.93 101.355C1036.24 98.9893 1032.75 97.8065 1028.45 97.8065C1022.96 97.8065 1018.12 100.118 1013.93 104.742C1009.84 109.366 1007.42 116.624 1006.67 126.516L1006.83 127C1006.73 128.075 1006.67 129.258 1006.67 130.548C1006.67 131.839 1006.67 133.183 1006.67 134.581C1006.67 145.978 1008.88 154.796 1013.29 161.032C1017.69 167.161 1024.04 170.226 1032.32 170.226C1037.69 170.226 1042.48 168.935 1046.67 166.355C1050.97 163.667 1054.52 159.527 1057.32 153.935L1062.96 157.161C1060.17 164.151 1055.7 169.581 1049.58 173.452C1043.55 177.323 1036.4 179.258 1028.12 179.258Z" fill="black"/>
<path d="M94.973 77.7857C71.6795 77.7857 49.3399 87.0391 32.8689 103.51C16.3978 119.981 7.14447 142.321 7.14447 165.614L36.873 172.514C75.0944 181.378 114.837 181.378 153.059 172.514L182.802 165.614C182.802 142.321 173.548 119.981 157.077 103.51C140.606 87.0391 118.267 77.7857 94.973 77.7857ZM94.973 77.7857V44M74.7016 44H115.259M7.14447 205.2L36.873 212.086C75.0944 220.95 114.837 220.95 153.059 212.086L182.802 205.2" stroke="black" stroke-width="14.2857" stroke-linecap="round" stroke-linejoin="round"/>
</svg>
