<?xml version="1.0" encoding="UTF-8"?>
<svg version="1.1" xmlns="http://www.w3.org/2000/svg" width="202" height="188">
<path d="M0 0 C1.64091866 -0.0076664 1.64091866 -0.0076664 3.31498718 -0.01548767 C6.90951095 -0.02931846 10.50384155 -0.02843163 14.09838867 -0.02612305 C16.61268687 -0.03001381 19.12698442 -0.03434927 21.64128113 -0.03910828 C26.90409978 -0.0465567 32.16686902 -0.04642895 37.4296875 -0.04101562 C43.4844362 -0.03498275 49.53895212 -0.04727762 55.59366113 -0.06858569 C61.45147079 -0.08843118 67.30919034 -0.0913629 73.16702843 -0.08785057 C75.64397414 -0.08836164 78.12092374 -0.09355889 80.59784889 -0.10366249 C84.07192173 -0.11609435 87.54546592 -0.10919429 91.01953125 -0.09765625 C92.02823273 -0.10529999 93.0369342 -0.11294373 94.07620239 -0.12081909 C108.01675349 -0.0192474 119.1474366 4.19044821 129.70385742 13.2746582 C140.65979962 25.89059164 143.8392779 38.38999961 143.88085938 54.60327148 C143.88743057 55.72457962 143.89400177 56.84588776 143.90077209 58.00117493 C143.92042539 61.69910763 143.93215012 65.39699987 143.94213867 69.0949707 C143.9462142 70.36313503 143.95028973 71.63129936 143.95448875 72.93789291 C143.97317324 78.96016067 143.98774629 84.98240418 143.99610072 91.00469315 C144.00585719 97.92041969 144.03214773 104.83582482 144.07260162 111.75143826 C144.1065839 117.77048551 144.11826054 123.78937861 144.12230492 129.8085289 C144.12715589 132.35444188 144.13872696 134.90035179 144.15734291 137.44620132 C144.25680485 151.94986319 144.29773375 164.08690554 137.70385742 177.2746582 C76.98385742 177.2746582 16.26385742 177.2746582 -46.29614258 177.2746582 C-51.01419848 166.65903242 -52.59956074 159.17783068 -52.55493164 147.87084961 C-52.55843628 146.76554398 -52.56194092 145.66023834 -52.56555176 144.5214386 C-52.57431042 140.88963425 -52.56853976 137.25802683 -52.56176758 133.6262207 C-52.5631161 131.08710696 -52.5650582 128.54799348 -52.56756592 126.00888062 C-52.57050941 120.69477637 -52.56643809 115.38074174 -52.55688477 110.06665039 C-52.54601365 103.94944294 -52.54952066 97.83236898 -52.56053758 91.71516478 C-52.57075923 85.79969605 -52.56961069 79.88426825 -52.56377411 73.96879196 C-52.56244553 71.46590531 -52.5640574 68.96301523 -52.56873322 66.4601326 C-52.57384787 62.95241709 -52.56601849 59.44495281 -52.55493164 55.93725586 C-52.5589801 54.91560837 -52.56302856 53.89396088 -52.56719971 52.84135437 C-52.47855176 37.59826084 -48.67677554 24.51475338 -38.10864258 13.2746582 C-26.92756646 2.86045973 -14.83325254 -0.03621313 0 0 Z " fill="#EDE9DF" transform="translate(53.296142578125,10.725341796875)"/>
<path d="M0 0 C11.78654088 8.44859251 20.47320423 19.61442322 24.44140625 33.75 C24.59915585 36.44401945 24.53721438 39.04704951 24.44140625 41.75 C21.77718187 42.53014904 19.11040777 43.29899055 16.44140625 44.0625 C15.71695313 44.27583984 14.9925 44.48917969 14.24609375 44.70898438 C-0.30926668 48.84122653 -14.06426624 50.2938146 -29.12109375 50.1875 C-29.99478607 50.18545563 -30.86847839 50.18341125 -31.76864624 50.18130493 C-76.29667039 50.01192336 -76.29667039 50.01192336 -84.55859375 41.75 C-85.77767128 31.18466142 -80.64835653 21.28824924 -74.4296875 13.0234375 C-55.80256299 -9.6091021 -25.23967953 -16.2052517 0 0 Z " fill="#EBE7DD" transform="translate(129.55859375,85.25)"/>
<path d="M0 0 C0.67877197 0.00008057 1.35754395 0.00016113 2.05688477 0.00024414 C4.12667451 -0.00194046 6.1959298 -0.02008804 8.265625 -0.0390625 C10.21178711 -0.04196289 10.21178711 -0.04196289 12.19726562 -0.04492188 C13.39536865 -0.04903076 14.59347168 -0.05313965 15.82788086 -0.05737305 C18.70117188 0.18554688 18.70117188 0.18554688 20.70117188 2.18554688 C21.06045866 4.9879838 21.19008404 6.52847383 19.47460938 8.83398438 C17.17939421 10.58320122 15.86386436 10.49696829 13.01367188 10.37304688 C11.59054688 10.31117187 10.16742188 10.24929687 8.70117188 10.18554688 C9.19617188 15.13554688 9.19617188 15.13554688 9.70117188 20.18554688 C10.57257813 20.34410156 11.44398437 20.50265625 12.34179688 20.66601562 C30.46939663 24.21698484 46.88014823 32.30974184 57.84716797 47.8046875 C64.71579992 58.32556795 69.68508199 70.16725475 69.95117188 82.87304688 C69.98984375 83.99259766 69.98984375 83.99259766 70.02929688 85.13476562 C69.60374394 87.79447145 68.74713106 88.47061479 66.70117188 90.18554688 C64.72192383 91.01342773 64.72192383 91.01342773 62.43945312 91.65039062 C61.58109863 91.89128418 60.72274414 92.13217773 59.83837891 92.38037109 C58.44014893 92.74799561 58.44014893 92.74799561 57.01367188 93.12304688 C56.03253418 93.38102051 55.05139648 93.63899414 54.04052734 93.90478516 C26.01071191 101.05120962 -2.81704006 103.18736954 -31.29882812 97.18554688 C-32.24032715 96.9926709 -33.18182617 96.79979492 -34.15185547 96.60107422 C-57.7832993 91.7010757 -57.7832993 91.7010757 -61.29882812 88.18554688 C-63.08489087 70.98831414 -56.4604927 57.2645724 -46.46289062 43.69335938 C-39.51774353 35.22438254 -29.42624709 28.34577292 -19.29882812 24.18554688 C-18.595 23.8890625 -17.89117187 23.59257813 -17.16601562 23.28710938 C-11.39396809 21.09493801 -6.45231856 20.92554024 -0.29882812 21.18554688 C-0.29882812 17.55554688 -0.29882812 13.92554687 -0.29882812 10.18554688 C-2.54492188 10.28320312 -4.79101562 10.38085938 -7.03710938 10.47851562 C-9.29882812 10.18554688 -9.29882812 10.18554688 -11.10742188 8.86914062 C-12.29882812 7.18554688 -12.29882812 7.18554688 -12.04882812 4.06054688 C-10.48914082 -1.91825445 -5.4042929 0.02418629 0 0 Z M-32.29882812 44.18554688 C-33.0284375 44.80300781 -33.75804688 45.42046875 -34.50976562 46.05664062 C-42.45663785 53.37933323 -49.6572721 64.48079806 -50.47070312 75.51757812 C-50.48394407 77.40772312 -50.40177644 79.2981611 -50.29882812 81.18554688 C-44.51986075 83.50508653 -38.8977155 85.08685358 -32.79882812 86.31054688 C-31.99574219 86.47941406 -31.19265625 86.64828125 -30.36523438 86.82226562 C-22.44274648 88.45298842 -14.69107447 89.34443099 -6.61132812 89.45898438 C-5.79906769 89.4713765 -4.98680725 89.48376862 -4.14993286 89.49653625 C-1.53285567 89.52875982 1.08392973 89.5477111 3.70117188 89.56054688 C4.592901 89.56510895 5.48463013 89.56967102 6.40338135 89.57437134 C21.05826386 89.60120937 34.57223593 88.34929718 48.70117188 84.18554688 C49.63993164 83.9092041 50.57869141 83.63286133 51.54589844 83.34814453 C53.93400792 82.63673048 56.31890063 81.91623284 58.70117188 81.18554688 C59.87834066 68.9429915 52.55731588 57.4137826 45.08398438 48.18945312 C37.5933031 40.14324286 28.05435121 35.4384039 17.70117188 32.18554688 C16.71117188 31.85554688 15.72117187 31.52554688 14.70117188 31.18554688 C-3.61469674 29.53320747 -17.96851659 32.01615533 -32.29882812 44.18554688 Z " fill="#111110" transform="translate(95.298828125,45.814453125)"/>
<path d="M0 0 C5.22458616 0.15398212 10.25726645 1.47162808 15.328125 2.6484375 C47.26237821 9.92352565 78.0175157 10.3312602 109.85742188 2.30615234 C116.08320766 0.77616643 121.66070652 -0.34023222 128.078125 0.2734375 C130.078125 3.2734375 130.078125 3.2734375 129.828125 5.8359375 C129.078125 8.2734375 129.078125 8.2734375 127.078125 10.2734375 C93.74759004 22.60693126 51.43781782 23.42417666 17.078125 15.2734375 C15.70333984 14.96067871 15.70333984 14.96067871 14.30078125 14.64160156 C-1.95892379 10.8959402 -1.95892379 10.8959402 -4.921875 7.2734375 C-5.234375 4.7109375 -5.234375 4.7109375 -4.921875 2.2734375 C-2.921875 0.2734375 -2.921875 0.2734375 0 0 Z " fill="#111110" transform="translate(36.921875,153.7265625)"/>
<path d="M0 0 C0.66 0 1.32 0 2 0 C3.65 2.97 5.3 5.94 7 9 C5.68 9.33 4.36 9.66 3 10 C0.2704415 12.47906969 0.2704415 12.47906969 -2 15 C-5 10.375 -5 10.375 -5 7 C-4.34 7 -3.68 7 -3 7 C-2.01 4.69 -1.02 2.38 0 0 Z " fill="#151514" transform="translate(150,92)"/>
<path d="M0 0 C2.375 2.5 2.375 2.5 4 5 C3.401875 4.79375 2.80375 4.5875 2.1875 4.375 C-0.28450846 3.69328085 -0.28450846 3.69328085 -3 6 C-5.6875 5.625 -5.6875 5.625 -8 5 C-8.33 5.66 -8.66 6.32 -9 7 C-9.66 5.68 -10.32 4.36 -11 3 C-7.22777066 0.33724988 -4.62792232 -0.78773146 0 0 Z " fill="#080807" transform="translate(141,81)"/>
<path d="M0 0 C0 0.99 0 1.98 0 3 C0.99 4.485 0.99 4.485 2 6 C0.625 7.5 0.625 7.5 -1 9 C-1.66 9 -2.32 9 -3 9 C-3.268125 8.05125 -3.53625 7.1025 -3.8125 6.125 C-4.74986588 2.74732727 -4.74986588 2.74732727 -8 1 C-4.93251126 -0.86240388 -3.40254489 -1.2151946 0 0 Z " fill="#181817" transform="translate(54,92)"/>
<path d="M0 0 C1.16402344 -0.03867188 1.16402344 -0.03867188 2.3515625 -0.078125 C3.01929688 0.03015625 3.68703125 0.1384375 4.375 0.25 C6.375 3.25 6.375 3.25 6.375 7.25 C5.715 7.25 5.055 7.25 4.375 7.25 C4.1275 6.610625 3.88 5.97125 3.625 5.3125 C2.56050582 3.12506285 2.56050582 3.12506285 0.5 2.375 C-2.10607784 2.2217013 -3.33964317 3.07046099 -5.625 4.25 C-6.615 3.92 -7.605 3.59 -8.625 3.25 C-8.625 2.59 -8.625 1.93 -8.625 1.25 C-5.70881479 0.42441332 -3.02964506 0.06079555 0 0 Z " fill="#24221F" transform="translate(160.625,153.75)"/>
<path d="M0 0 C0.99 0 1.98 0 3 0 C3 0.99 3 1.98 3 3 C4.32 2.67 5.64 2.34 7 2 C7.33 2.99 7.66 3.98 8 5 C7.01 5.66 6.02 6.32 5 7 C2.5 5.1875 2.5 5.1875 0 3 C0 2.01 0 1.02 0 0 Z " fill="#141412" transform="translate(133,86)"/>
<path d="M0 0 C0.66 0.33 1.32 0.66 2 1 C1.34 3.31 0.68 5.62 0 8 C-1.5625 6.75 -1.5625 6.75 -3 5 C-2.8125 2.875 -2.8125 2.875 -2 1 C-1.34 0.67 -0.68 0.34 0 0 Z " fill="#E3DFD7" transform="translate(155,89)"/>
<path d="M0 0 C0.66 0.33 1.32 0.66 2 1 C2 1.66 2 2.32 2 3 C1.34 3 0.68 3 0 3 C-0.33 3.99 -0.66 4.98 -1 6 C-3.0625 6.6875 -3.0625 6.6875 -5 7 C-3.75023244 3.34683329 -3.32901247 2.21934164 0 0 Z " fill="#F0EEE7" transform="translate(57,98)"/>
<path d="M0 0 C1.32 1.32 2.64 2.64 4 4 C4 3.34 4 2.68 4 2 C4.66 2.33 5.32 2.66 6 3 C5.34 4.65 4.68 6.3 4 8 C0.21284635 5.55667506 0.21284635 5.55667506 -0.8125 2.875 C-0.874375 2.25625 -0.93625 1.6375 -1 1 C-0.67 0.67 -0.34 0.34 0 0 Z " fill="#060606" transform="translate(144,92)"/>
<path d="M0 0 C0.66 0 1.32 0 2 0 C1.67 2.31 1.34 4.62 1 7 C0.01 7 -0.98 7 -2 7 C-1.125 1.125 -1.125 1.125 0 0 Z " fill="#1C1B19" transform="translate(85,46)"/>
<path d="M0 0 C0.66 0 1.32 0 2 0 C2 2.64 2 5.28 2 8 C0.68 8.33 -0.64 8.66 -2 9 C-2 8.34 -2 7.68 -2 7 C-1.34 6.67 -0.68 6.34 0 6 C-0.33 5.34 -0.66 4.68 -1 4 C-0.5625 1.875 -0.5625 1.875 0 0 Z " fill="#DEDCD7" transform="translate(152,119)"/>
<path d="M0 0 C1.32 0.66 2.64 1.32 4 2 C3.34 3.32 2.68 4.64 2 6 C1.34 6 0.68 6 0 6 C-1.125 2.25 -1.125 2.25 0 0 Z " fill="#E1DDD5" transform="translate(50,106)"/>
<path d="M0 0 C0.99 0 1.98 0 3 0 C2.25 2.4375 2.25 2.4375 1 5 C-1.125 5.8125 -1.125 5.8125 -3 6 C-1.125 1.125 -1.125 1.125 0 0 Z " fill="#EFEEE9" transform="translate(68,86)"/>
<path d="M0 0 C2.475 0.99 2.475 0.99 5 2 C3.68 3.32 2.36 4.64 1 6 C0.67 4.02 0.34 2.04 0 0 Z " fill="#F1EEE9" transform="translate(162,110)"/>
<path d="M0 0 C0.99 0.33 1.98 0.66 3 1 C1.25 4.875 1.25 4.875 -1 6 C-1.33 4.68 -1.66 3.36 -2 2 C-1.34 2 -0.68 2 0 2 C0 1.34 0 0.68 0 0 Z " fill="#191A16" transform="translate(60,88)"/>
</svg>
