<?xml version="1.0" encoding="UTF-8"?>
<svg version="1.1" xmlns="http://www.w3.org/2000/svg" width="938" height="266">
<path d="M0 0 C1.37908794 -0.00599357 2.75817254 -0.01280101 4.13725281 -0.02035522 C7.86482394 -0.03794117 11.5923031 -0.04270754 15.31991172 -0.0439868 C17.65515125 -0.04541351 19.99036779 -0.04969299 22.32560158 -0.05498123 C30.49084569 -0.07345917 38.65602473 -0.08165492 46.82128906 -0.08007812 C54.40234141 -0.07887832 61.98310833 -0.09995471 69.56408852 -0.13156545 C76.09689649 -0.15782342 82.62961181 -0.16844141 89.16247207 -0.16716731 C93.05346692 -0.16666033 96.94420803 -0.17219525 100.83514977 -0.19352341 C104.50021805 -0.21306654 108.16479477 -0.21292236 111.82988167 -0.19849014 C113.7942255 -0.19544382 115.75857025 -0.2119665 117.72283936 -0.22937012 C132.36838238 -0.12708125 146.81457964 4.58658357 157.7199707 14.68896484 C170.26039358 27.70560631 174.56816259 42.96347478 174.5534668 60.57836914 C174.55945972 62.01656948 174.56626702 63.45476662 174.57382202 64.89295959 C174.59141434 68.78168185 174.59617461 72.67031595 174.59745359 76.55907416 C174.59887992 78.99481914 174.60315868 81.43054204 174.60844803 83.86628151 C174.62692795 92.38165319 174.63512145 100.89696245 174.63354492 109.41235352 C174.632345 117.32059036 174.65342312 125.22855363 174.68503225 133.13672131 C174.71128311 139.9497812 174.7219085 146.76275223 174.7206341 153.57586223 C174.72012693 157.63452688 174.72567315 161.69294833 174.7469902 165.75156212 C174.76652121 169.57421293 174.76639712 173.39639231 174.75195694 177.2190609 C174.7498858 178.61170144 174.75446703 180.00437266 174.76667786 181.39696121 C174.90580607 198.38173689 169.72006426 211.92420172 158.19262695 224.45068359 C139.35441004 242.41181753 115.28603831 240.44828159 91.1652832 240.42333984 C88.84045909 240.42401545 86.51563504 240.4249876 84.19081116 240.42623901 C79.33537112 240.42770596 74.47994959 240.42559524 69.62451172 240.42089844 C63.46494272 240.41522422 57.30541754 240.41847195 51.14585018 240.4244709 C46.3471088 240.42812293 41.54837742 240.42691649 36.7496357 240.42434311 C34.48191892 240.42368544 32.21420117 240.42446066 29.94648552 240.42682266 C18.67396407 240.43598468 7.4161942 240.34680961 -3.84814453 239.88769531 C-4.74046563 239.85473421 -5.63278673 239.82177311 -6.55214787 239.78781319 C-22.06406744 239.06589045 -35.02088866 232.50466261 -45.73706055 221.29052734 C-56.21299503 208.47510551 -59.04103595 196.1462085 -59.02758789 179.89501953 C-59.03358064 178.44534461 -59.0403879 176.99567287 -59.04794312 175.54600525 C-59.06553559 171.62635953 -59.07029566 167.70680126 -59.07157469 163.78711987 C-59.07300082 161.33262167 -59.07727918 158.87814538 -59.08256912 156.42365265 C-59.10104795 147.84459534 -59.10924254 139.26559999 -59.10766602 130.68652344 C-59.1064656 122.71578358 -59.12755367 114.74531493 -59.15915334 106.77464366 C-59.18538974 99.90979525 -59.19603022 93.04503502 -59.1947552 86.18013692 C-59.19424767 82.0896469 -59.19981396 77.99939807 -59.2211113 73.90895844 C-59.24061815 70.05758458 -59.24053431 66.20667889 -59.22607803 62.35528755 C-59.22400406 60.95093913 -59.22860554 59.54656043 -59.24079895 58.14226341 C-59.35835411 43.65196652 -55.3626868 28.87281371 -45.3972168 17.81787109 C-31.48621269 5.01974732 -18.61798039 -0.01319769 0 0 Z " fill="#ECE8DE" transform="translate(157.737060546875,7.70947265625)"/>
<path d="M0 0 C3.51054627 2.8339481 6.78207707 5.83935402 10 9 C11.07121094 10.03447266 11.07121094 10.03447266 12.1640625 11.08984375 C20.43794766 19.66721118 27.82063163 33.13709231 28.06640625 45.28125 C28.03353516 46.62703125 28.03353516 46.62703125 28 48 C-7.17703703 59.04682391 -47.02315962 61.39625215 -83 53 C-84.71458706 52.62512613 -86.42942832 52.25141285 -88.14453125 51.87890625 C-99.14061228 49.42969386 -99.14061228 49.42969386 -102 48 C-102.67653854 33.68357144 -94.29608421 20.54754008 -85.46484375 9.9609375 C-63.88498011 -13.11267223 -26.25324508 -19.19096862 0 0 Z " fill="#EBE7DD" transform="translate(253,98)"/>
<path d="M0 0 C8.05092817 -0.07019724 16.10172377 -0.12315871 24.15288448 -0.15543652 C27.89329445 -0.17094553 31.6334917 -0.19190519 35.3737793 -0.22631836 C62.72241412 -0.47119063 88.08897141 -0.0141777 109.5703125 19.3125 C121.70956703 31.82210466 126.52839239 47.73555367 126.42211914 64.85229492 C125.87160179 82.98326805 117.61559051 96.92327195 104.69140625 109.19140625 C89.8825683 122.00627916 71.39552455 124.50036622 52.5390625 124.29296875 C51.01207909 124.28735542 49.48509017 124.28309357 47.95809937 124.28010559 C43.98954663 124.2687932 40.02133704 124.23944809 36.05291748 124.20599365 C31.98324217 124.17499459 27.91351 124.16153732 23.84375 124.14648438 C15.89567798 124.11456131 7.94788198 124.0635358 0 124 C0.33 123.01 0.66 122.02 1 121 C2.423125 120.690625 2.423125 120.690625 3.875 120.375 C7.03470101 119.36672757 7.03470101 119.36672757 7.9483366 117.24147129 C9.84162075 111.44690823 10.42618738 106.27696338 10.37231445 100.20092773 C10.37596512 99.26636749 10.37961578 98.33180725 10.38337708 97.368927 C10.3914245 94.30695926 10.37792184 91.24553042 10.36328125 88.18359375 C10.36276199 86.04085795 10.36328224 83.89812168 10.36479187 81.75538635 C10.36470241 77.27606038 10.35432546 72.79691536 10.33618164 68.31762695 C10.31348191 62.58915095 10.31295579 56.8609387 10.31969929 51.13243008 C10.32304763 46.7116717 10.31639307 42.29097295 10.30657005 37.87022591 C10.30273374 35.75840632 10.3015633 33.64658008 10.3031559 31.53475761 C10.3035286 28.57960336 10.29084946 25.62478178 10.2746582 22.66967773 C10.27713562 21.80555771 10.27961304 20.94143768 10.28216553 20.0511322 C10.23575009 14.71721651 9.48430319 10.12819826 8 5 C5.36 4.34 2.72 3.68 0 3 C0 2.01 0 1.02 0 0 Z M30 4 C29.92982424 17.83013455 29.8771696 31.66024138 29.84456348 45.49051762 C29.82891351 51.9126052 29.80768705 58.33457309 29.77368164 64.7565918 C29.74106494 70.95520134 29.72314196 77.15369582 29.71536827 83.35238457 C29.70982896 85.71625009 29.69901207 88.08010937 29.68280983 90.44392586 C29.66100534 93.75710747 29.65803441 97.06981472 29.65942383 100.38305664 C29.648638 101.35841873 29.63785217 102.33378082 29.6267395 103.33869934 C29.65234704 108.9888658 30.23874991 113.02582619 33 118 C41.75984926 123.34335124 59.86069977 121.3548015 69.5390625 119.16015625 C82.98744432 114.73203053 91.66906694 105.44019397 98.5 93.34375 C106.69500061 76.75862972 107.46429647 57.33190873 101.69775391 39.88134766 C96.50985496 25.89326184 87.91463614 16.16991289 75 9 C67.0237178 5.55462367 59.19547604 3.86097392 50.5078125 3.90234375 C49.30898438 3.90556641 48.11015625 3.90878906 46.875 3.91210938 C45.6375 3.92048828 44.4 3.92886719 43.125 3.9375 C41.86429687 3.94201172 40.60359375 3.94652344 39.3046875 3.95117188 C36.20307614 3.9629204 33.10156275 3.97934833 30 4 Z " fill="#0E0E0E" transform="translate(372,44)"/>
<path d="M0 0 C1.08166443 -0.00430527 1.08166443 -0.00430527 2.18518066 -0.00869751 C3.70825995 -0.01073702 5.2313655 -0.00521497 6.75439453 0.00732422 C9.08555678 0.02338107 11.41498542 0.0074734 13.74609375 -0.01171875 C15.22656633 -0.0097363 16.70703782 -0.00589257 18.1875 0 C18.8844397 -0.00607269 19.58137939 -0.01214539 20.29943848 -0.0184021 C23.16885794 0.02329374 25.13338821 0.08098258 27.53320312 1.73583984 C29.20270857 4.35308941 28.97113328 6.37937128 28.59375 9.3984375 C27.42578125 11.07421875 27.42578125 11.07421875 25.59375 12.3984375 C21.89006297 12.80042958 18.33030831 12.53031603 14.59375 12.3984375 C14.59375 16.6884375 14.59375 20.9784375 14.59375 25.3984375 C15.934375 25.4603125 17.275 25.5221875 18.65625 25.5859375 C36.12009555 27.40868019 51.28150523 36.28621115 63.59375 48.3984375 C64.51027344 49.18927734 64.51027344 49.18927734 65.4453125 49.99609375 C77.69287796 60.92942273 84.63868385 78.76551712 85.8515625 94.80859375 C86.07379596 101.49782082 86.07379596 101.49782082 85.59375 104.3984375 C82.56677511 107.26927668 79.56589239 108.14718125 75.5625 109.1171875 C73.77162964 109.55393799 73.77162964 109.55393799 71.94458008 109.99951172 C70.67380615 110.29615723 69.40303223 110.59280273 68.09375 110.8984375 C67.44602631 111.05217834 66.79830261 111.20591919 66.13095093 111.36431885 C55.03704207 113.99305454 43.9251454 116.09815511 32.59375 117.3984375 C31.84778564 117.4905249 31.10182129 117.5826123 30.33325195 117.67749023 C-0.61638973 121.19931328 -37.4791399 118.59198015 -66.40625 106.3984375 C-69.15016496 103.65452254 -68.73785152 102.05170329 -68.78125 98.2109375 C-68.45031713 78.00334922 -58.73287317 61.17958981 -45.21875 46.7109375 C-31.85836431 33.92942467 -14.84494053 26.17892928 3.59375 26.3984375 C3.59375 21.7784375 3.59375 17.1584375 3.59375 12.3984375 C0.9640625 12.49125 0.9640625 12.49125 -1.71875 12.5859375 C-6.89413962 12.76859831 -6.89413962 12.76859831 -9.23828125 11.07421875 C-11.05173905 8.47230104 -10.79099673 6.47641138 -10.40625 3.3984375 C-7.90584181 -0.52140131 -4.20780059 -0.03666412 0 0 Z M-38.40625 57.3984375 C-39.04949219 58.05714844 -39.69273437 58.71585938 -40.35546875 59.39453125 C-48.79990275 68.49840044 -56.05140131 81.17237155 -56.5390625 93.8515625 C-56.49523437 94.69203125 -56.45140625 95.5325 -56.40625 96.3984375 C-47.98560714 98.79704486 -39.5542788 100.86755175 -30.96875 102.5859375 C-29.72786621 102.83585449 -29.72786621 102.83585449 -28.46191406 103.09082031 C-20.45778734 104.65943589 -12.64204414 105.55991907 -4.4921875 105.671875 C-3.65207626 105.68431244 -2.81196503 105.69674988 -1.94639587 105.70956421 C23.99271913 106.01862042 48.65976306 104.22858427 73.59375 96.3984375 C73.18312093 79.861285 64.750969 65.85780782 53.20654297 54.54248047 C40.14599103 42.25996948 22.81059711 36.77426888 5.15625 37.16015625 C-11.60755245 37.86326615 -26.90428289 45.29896561 -38.40625 57.3984375 Z " fill="#131211" transform="translate(207.40625,49.6015625)"/>
<path d="M0 0 C0.33 4.29 0.66 8.58 1 13 C2.155 11.9275 3.31 10.855 4.5 9.75 C13.5976355 1.8076198 23.28075436 -0.49404761 35.265625 -0.31640625 C43.15720551 0.35223185 49.49116047 3.35999762 55 9 C60.94333222 17.5848132 61.29268635 26.6659399 61.34375 36.859375 C61.3583728 37.9667804 61.37299561 39.07418579 61.38806152 40.21514893 C61.44995364 44.91919862 61.49000535 49.62337181 61.53173828 54.32763672 C61.56547447 57.77585521 61.61056176 61.22379752 61.65625 64.671875 C61.66416565 66.26415924 61.66416565 66.26415924 61.67224121 67.88861084 C61.68565552 68.88024231 61.69906982 69.87187378 61.71289062 70.89355469 C61.72382751 72.19519562 61.72382751 72.19519562 61.73498535 73.52313232 C62.03516676 76.32867396 62.77338436 78.46523703 64 81 C65.68046157 82.21526985 65.68046157 82.21526985 67.625 82.8125 C68.73875 83.204375 69.8525 83.59625 71 84 C71 84.66 71 85.32 71 86 C58.46 86 45.92 86 33 86 C33 85.01 33 84.02 33 83 C33.928125 82.814375 34.85625 82.62875 35.8125 82.4375 C39.37378917 80.83142841 40.03467683 79.71749714 41.4175415 76.16323853 C42.55021422 71.95651605 42.42581164 67.71671347 42.3984375 63.38671875 C42.40130768 62.37712601 42.40417786 61.36753326 42.40713501 60.3273468 C42.40916957 58.19845008 42.40368244 56.06953441 42.39111328 53.94067383 C42.37510185 50.70806301 42.39095724 47.476712 42.41015625 44.24414062 C42.40817273 42.16666394 42.40432681 40.08918803 42.3984375 38.01171875 C42.40451019 37.05722336 42.41058289 36.10272797 42.4168396 35.11930847 C42.3388396 27.550443 41.45361987 20.20333706 36.75 14.0625 C30.76141431 9.57106073 25.32854635 8.10387959 18 9 C10.55882222 10.58663129 5.28863357 13.56704964 1 20 C0.69626871 22.48308953 0.69626871 22.48308953 0.74121094 25.29418945 C0.73490662 26.37573807 0.72860229 27.45728668 0.72210693 28.5716095 C0.7261554 29.74036118 0.73020386 30.90911285 0.734375 32.11328125 C0.73246155 33.31558884 0.7305481 34.51789642 0.72857666 35.75663757 C0.72721446 38.3028484 0.73091331 40.84906616 0.73925781 43.39526367 C0.74992858 47.28645535 0.73937783 51.17718238 0.7265625 55.06835938 C0.72788464 57.54166768 0.73044815 60.0149757 0.734375 62.48828125 C0.73032654 63.65096024 0.72627808 64.81363922 0.72210693 66.0115509 C0.71191541 73.71206286 0.71191541 73.71206286 3 81 C4.66099111 82.32486711 4.66099111 82.32486711 6.625 82.875 C8.295625 83.431875 8.295625 83.431875 10 84 C10 84.66 10 85.32 10 86 C-2.54 86 -15.08 86 -28 86 C-27.67 85.01 -27.34 84.02 -27 83 C-26.21625 82.7525 -25.4325 82.505 -24.625 82.25 C-21.54322902 80.78249001 -20.83310358 79.43006343 -19.6000061 76.3130188 C-18.30777447 71.33147604 -18.59721536 66.17081633 -18.63671875 61.05859375 C-18.63622025 59.81755386 -18.63572174 58.57651398 -18.63520813 57.29786682 C-18.63813852 54.01375047 -18.65510726 50.73007309 -18.6774292 47.44604492 C-18.68749916 45.43766674 -18.68780958 43.42954034 -18.68432617 41.42114258 C-18.67790509 37.55017863 -18.68584265 33.67953535 -18.69921875 29.80859375 C-18.69830734 28.61471542 -18.69739594 27.4208371 -18.69645691 26.19078064 C-18.71075493 24.51357689 -18.71075493 24.51357689 -18.7253418 22.80249023 C-18.73225288 21.33524757 -18.73225288 21.33524757 -18.73930359 19.83836365 C-19.13298463 15.55211379 -19.91724689 12.08275311 -23 9 C-24.64991582 8.29289322 -26.31562256 7.62056011 -28 7 C-28 6.34 -28 5.68 -28 5 C-7.03333333 0 -7.03333333 0 0 0 Z " fill="#0E0E0E" transform="translate(588,82)"/>
<path d="M0 0 C0 0.66 0 1.32 0 2 C-1.65 2.66 -3.3 3.32 -5 4 C-7.19445613 11.37551352 -4.04085139 17.10436397 -1.1875 23.9375 C-0.69209717 25.15920898 -0.19669434 26.38091797 0.3137207 27.63964844 C1.59967141 30.80787474 2.90587263 33.96726971 4.21984863 37.1239624 C5.47345326 40.13851768 6.71590226 43.15767871 7.9609375 46.17578125 C10.2858832 51.79293818 12.63314284 57.40038129 15 63 C17.93780033 57.33640972 20.40561838 51.65353007 22.63671875 45.6796875 C22.96162796 44.81739532 23.28653717 43.95510315 23.62129211 43.06668091 C24.30155475 41.25735169 24.9796014 39.44718789 25.65551758 37.63623047 C26.68818199 34.87317522 27.73135123 32.11424295 28.77539062 29.35546875 C29.43813648 27.5887803 30.10026721 25.82186095 30.76171875 24.0546875 C31.07211594 23.23580048 31.38251312 22.41691345 31.70231628 21.57321167 C34.56469937 14.13135126 34.56469937 14.13135126 34.4375 6.3125 C32.51254307 3.21583016 30.31363222 2.36867418 27 1 C27 0.67 27 0.34 27 0 C34.692641 -0.84800767 42.26291674 -1.12152487 50 -1 C50.495 0.485 50.495 0.485 51 2 C49.56770833 2.81380208 48.13541667 3.62760417 46.703125 4.44140625 C41.07340316 9.59337647 38.69575518 18.29582649 35.9375 25.1875 C35.22231201 26.95806763 35.22231201 26.95806763 34.49267578 28.7644043 C31.07067964 37.26103329 27.71624167 45.78380505 24.375 54.3125 C23.01667406 57.77307142 21.65775749 61.23340853 20.29785156 64.69335938 C19.44833534 66.85774007 18.60123426 69.02307064 17.75683594 71.18945312 C5.96705315 101.3582718 5.96705315 101.3582718 -7.3125 108.875 C-13.28150392 110.69605204 -19.11574047 111.00442719 -25 108.6875 C-28 107 -28 107 -30 104 C-29.55555556 98.55555556 -29.55555556 98.55555556 -27 96 C-23.44222831 96.27367475 -20.36501848 96.87072262 -17 98.0625 C-12.21667302 99.55728968 -8.51685281 99.56510203 -3.8125 97.8125 C0.25670676 95.19012231 3.40917143 91.62786494 5 87 C4.45625949 82.13477376 2.36244588 77.85345106 0.421875 73.4140625 C0.05867157 72.57198746 -0.30453186 71.72991241 -0.67874146 70.86231995 C-1.86473925 68.1146111 -3.05724772 65.36978271 -4.25 62.625 C-5.89559792 58.82263606 -7.53803841 55.01891402 -9.1796875 51.21484375 C-9.59010284 50.26485001 -10.00051819 49.31485626 -10.42337036 48.33607483 C-12.97787802 42.41101242 -15.48601725 36.46908478 -17.9453125 30.50390625 C-18.24248169 29.78499207 -18.53965088 29.06607788 -18.8458252 28.32537842 C-19.95949323 25.62914179 -21.07270257 22.93288043 -22.16906738 20.22955322 C-22.90522015 18.41451561 -23.65159171 16.60363266 -24.3984375 14.79296875 C-24.80755371 13.7877417 -25.21666992 12.78251465 -25.63818359 11.74682617 C-27.6520807 7.68473288 -29.61011262 4.66335534 -33.75 2.6875 C-34.4925 2.460625 -35.235 2.23375 -36 2 C-36 1.34 -36 0.68 -36 0 C-23.94730284 -1.12118113 -12.02205281 -1.65821418 0 0 Z " fill="#0D0D0D" transform="translate(803,84)"/>
<path d="M0 0 C0.66 0.33 1.32 0.66 2 1 C2 8.59 2 16.18 2 24 C8.6 24 15.2 24 22 24 C22.495 25.98 22.495 25.98 23 28 C22 29 22 29 20.05053711 29.11352539 C19.2178833 29.10828857 18.38522949 29.10305176 17.52734375 29.09765625 C16.62822266 29.09443359 15.72910156 29.09121094 14.80273438 29.08789062 C13.85720703 29.07951172 12.91167969 29.07113281 11.9375 29.0625 C10.98810547 29.05798828 10.03871094 29.05347656 9.06054688 29.04882812 C6.70696935 29.0370011 4.35351523 29.02052025 2 29 C2.08452359 37.24110311 2.17945308 45.48199369 2.28752708 53.72281837 C2.33739077 57.54971341 2.3837213 61.37658217 2.421875 65.20361328 C2.45885375 68.89957785 2.50524707 72.59531713 2.55806351 76.2910881 C2.57654079 77.69837858 2.59167316 79.10571722 2.60334396 80.5130806 C2.62032026 82.49010019 2.6504862 84.46699302 2.68115234 86.44384766 C2.69447601 87.56747711 2.70779968 88.69110657 2.7215271 89.8487854 C3.01681025 93.19022576 3.73204183 95.89945358 5 99 C6.66682687 100.04675713 6.66682687 100.04675713 9 100 C10.27875 100.0825 11.5575 100.165 12.875 100.25 C16.87254339 100.22022314 19.50393966 98.95128949 23 97 C23.99 97 24.98 97 26 97 C24.67358687 102.63725582 20.61462768 105.03152605 16 108 C10.82088709 110.86214134 4.32541232 111.58312917 -1.47265625 110.56640625 C-6.45386451 109.09449663 -9.80324737 107.23099613 -13 103 C-16.80116147 95.44021235 -16.38459579 87.82257088 -16.29296875 79.5625 C-16.28736471 78.07178171 -16.28309843 76.58105785 -16.28010559 75.09033203 C-16.26872028 71.190739 -16.23930868 67.29148791 -16.20599365 63.39202881 C-16.17515553 59.40332666 -16.16157106 55.41456858 -16.14648438 51.42578125 C-16.1144319 43.6170326 -16.06331346 35.80856444 -16 28 C-19.63 28 -23.26 28 -27 28 C-25.04112139 24.08224278 -24.74109955 23.51778637 -21.25 21.5625 C-14.67372634 17.84716429 -10.10964569 13.25871704 -5.6875 7.25 C-4.81681305 6.08823668 -3.94573953 4.92676294 -3.07421875 3.765625 C-2.38972656 2.85296875 -1.70523438 1.9403125 -1 1 C-0.67 0.67 -0.34 0.34 0 0 Z " fill="#0F0F0F" transform="translate(740,59)"/>
<path d="M0 0 C0.97710937 0.32613281 1.95421875 0.65226563 2.9609375 0.98828125 C10.40731256 3.22059926 17.93596182 4.6290045 25.5859375 5.98828125 C26.7817041 6.20250732 27.9774707 6.4167334 29.20947266 6.63745117 C61.58616192 12.27629008 94.34574205 9.82632441 126.14941406 1.96411133 C137.16724588 -0.75780085 137.16724588 -0.75780085 142.3359375 -0.69921875 C144.8984375 0.92578125 144.8984375 0.92578125 146.3359375 3.30078125 C146.7734375 5.86328125 146.7734375 5.86328125 146.3359375 8.30078125 C139.42229577 17.29767265 116.89863338 17.86816412 106.44873047 19.7331543 C104.51514165 20.0857499 102.58566362 20.46294518 100.66455078 20.87817383 C90.05781509 23.01120619 79.23449802 22.73869648 68.4609375 22.73828125 C67.3971286 22.74001343 66.3333197 22.74174561 65.23727417 22.74353027 C47.39136567 22.73078403 30.75924114 21.24644318 13.3359375 17.30078125 C11.55505742 16.92662036 9.77383255 16.55409494 7.9921875 16.18359375 C-8.30427055 12.6605732 -8.30427055 12.6605732 -11.6640625 9.30078125 C-12.12391651 3.09275205 -12.12391651 3.09275205 -10.5390625 0.36328125 C-7.17266139 -1.54434605 -3.63995459 -0.95535465 0 0 Z " fill="#121211" transform="translate(148.6640625,177.69921875)"/>
<path d="M0 0 C0.00879936 1.36730003 0.00879936 1.36730003 0.01777649 2.76222229 C0.07577502 11.36915773 0.14789284 19.97583565 0.23571491 28.58252048 C0.28036716 33.00689928 0.3196345 37.43118709 0.34643555 41.85571289 C0.37252004 46.12879522 0.4129585 50.40152645 0.46318626 54.67439079 C0.47982027 56.30134641 0.49135609 57.9283627 0.49761391 59.55539131 C0.50729307 61.8414163 0.53539598 64.12655007 0.56762695 66.41235352 C0.57873001 67.71141129 0.58983307 69.01046906 0.60127258 70.34889221 C1.06654505 74.60934652 1.99440994 77.22572653 4 81 C7.03411107 82.97806411 7.03411107 82.97806411 10 84 C10 84.66 10 85.32 10 86 C-2.54 86 -15.08 86 -28 86 C-27.67 85.01 -27.34 84.02 -27 83 C-26.030625 82.71125 -25.06125 82.4225 -24.0625 82.125 C-20.86987413 81.33630992 -20.86987413 81.33630992 -19.82476807 78.81690979 C-18.9061414 75.6794357 -18.74603402 73.07276727 -18.74121094 69.80444336 C-18.73490662 68.57644516 -18.72860229 67.34844696 -18.72210693 66.08323669 C-18.72817963 64.10650719 -18.72817963 64.10650719 -18.734375 62.08984375 C-18.73302669 60.71651643 -18.73108477 59.34318958 -18.72857666 57.96986389 C-18.72563419 55.09762 -18.72989535 52.22550084 -18.73925781 49.35327148 C-18.75066272 45.67569798 -18.74408094 41.9984161 -18.73211288 38.32085323 C-18.7248797 35.4872468 -18.72718871 32.65370931 -18.73236847 29.82010078 C-18.73434685 27.80600418 -18.72828491 25.79190487 -18.72210693 23.77781677 C-18.72841125 22.55297073 -18.73471558 21.32812469 -18.74121094 20.06616211 C-18.74280212 18.98870224 -18.74439331 17.91124237 -18.74603271 16.8011322 C-19.00082238 13.99092955 -19.47690055 12.35257854 -21 10 C-22.69950428 8.89506665 -22.69950428 8.89506665 -24.625 8.25 C-25.73875 7.8375 -26.8525 7.425 -28 7 C-28 6.34 -28 5.68 -28 5 C-7.03333333 0 -7.03333333 0 0 0 Z " fill="#0F0F0F" transform="translate(539,82)"/>
<path d="M0 0 C0.00879936 1.345177 0.00879936 1.345177 0.01777649 2.7175293 C0.07581285 11.19170989 0.14795209 19.66562998 0.23571491 28.13955688 C0.28033726 32.49552541 0.31961103 36.85140216 0.34643555 41.20751953 C0.37255008 45.41576996 0.41300933 49.62366568 0.46318626 53.83169556 C0.47980009 55.43270436 0.49134839 57.03377444 0.49761391 58.63485718 C0.34346781 70.20474458 0.34346781 70.20474458 4 81 C7.04021368 82.59995382 7.04021368 82.59995382 10 83 C10 83.99 10 84.98 10 86 C-2.54 86 -15.08 86 -28 86 C-27.67 85.01 -27.34 84.02 -27 83 C-24.66666667 82 -22.33333333 81 -20 80 C-18.91028958 76.73086873 -18.85329659 74.28958274 -18.82299805 70.84790039 C-18.81016281 69.57970963 -18.79732758 68.31151886 -18.78410339 67.00489807 C-18.77593727 65.61915477 -18.7684933 64.23340705 -18.76171875 62.84765625 C-18.75764322 62.14931608 -18.7535677 61.45097591 -18.74936867 60.73147392 C-18.72853268 57.03753838 -18.71421845 53.34363975 -18.70483398 49.6496582 C-18.69375432 45.83510341 -18.65933045 42.02112952 -18.61966228 38.20678043 C-18.59352572 35.2719565 -18.58514502 32.33727192 -18.58155251 29.40234184 C-18.57668143 27.996109 -18.56505244 26.58988259 -18.54651451 25.1837635 C-18.52218348 23.21648316 -18.52550193 21.24891973 -18.5300293 19.28149414 C-18.52416306 18.16247208 -18.51829681 17.04345001 -18.51225281 15.89051819 C-19.11309199 12.3297871 -20.1981814 11.20422394 -23 9 C-25.63222962 7.74563813 -25.63222962 7.74563813 -28 7 C-28 6.34 -28 5.68 -28 5 C-23.8967776 4.16197087 -19.79227638 3.33038122 -15.6875 2.5 C-14.52025391 2.26152344 -13.35300781 2.02304688 -12.15039062 1.77734375 C-11.03212891 1.55175781 -9.91386719 1.32617188 -8.76171875 1.09375 C-7.73006592 0.88427734 -6.69841309 0.67480469 -5.63549805 0.45898438 C-3 0 -3 0 0 0 Z " fill="#0F0F0F" transform="translate(697,82)"/>
<path d="M0 0 C8.05092817 -0.07019724 16.10172377 -0.12315871 24.15288448 -0.15543652 C27.89329445 -0.17094553 31.6334917 -0.19190519 35.3737793 -0.22631836 C72.24070844 -0.55618805 72.24070844 -0.55618805 89 6 C88.18701172 9.84716797 88.18701172 9.84716797 86.50390625 11.22265625 C83.26032617 12.62581463 81.12425424 13.40343137 77.703125 12.17578125 C76.51976562 11.53189453 76.51976562 11.53189453 75.3125 10.875 C60.91194195 3.08175682 46.27382694 4.60273433 30 4 C30.495 58.945 30.495 58.945 31 115 C28.89151216 111.83726824 28.75118686 111.10931054 28.75949097 107.50117493 C28.75674164 106.57990814 28.75399231 105.65864136 28.75115967 104.7094574 C28.75835022 103.70101273 28.76554077 102.69256805 28.77294922 101.65356445 C28.77265717 100.58998718 28.77236511 99.52640991 28.77206421 98.43060303 C28.77345978 94.90808002 28.78903183 91.3857674 28.8046875 87.86328125 C28.80841682 85.42376318 28.81126417 82.98424361 28.81326294 80.54472351 C28.82090577 74.11835609 28.8405599 67.69207883 28.8626709 61.26574707 C28.8831153 54.71038024 28.89226165 48.15499888 28.90234375 41.59960938 C28.92380513 28.7330269 28.95899263 15.86653504 29 3 C19.43 3 9.86 3 0 3 C0 2.01 0 1.02 0 0 Z " fill="#181818" transform="translate(372,44)"/>
<path d="M0 0 C0.66 0 1.32 0 2 0 C2.21914063 0.80824219 2.43828125 1.61648437 2.6640625 2.44921875 C4.65687153 9.16482315 5.92977048 13.31025264 12 17 C14.31098251 18.13456687 16.58761185 19.0832925 19 20 C16.61069411 21.59287059 14.65777786 22.58662398 12.0625 23.6875 C6.91603983 26.23712247 5.11385048 29.70966007 3.3203125 35.0078125 C2.83245552 36.65850667 2.40943805 38.32812795 2 40 C1.34 40 0.68 40 0 40 C-0.23074219 39.26394531 -0.46148438 38.52789062 -0.69921875 37.76953125 C-3.30235058 29.86964449 -3.30235058 29.86964449 -9 24 C-11.64215295 22.79454847 -14.22529644 21.89354861 -17 21 C-15.66727616 18.33455233 -14.43163731 18.24293743 -11.6875 17.1875 C-7.57503751 15.39522237 -5.26884216 14.01410537 -3 10 C-1.83575243 6.70467318 -0.86753816 3.38471329 0 0 Z " fill="#B8996A" transform="translate(528,27)"/>
<path d="M0 0 C3.20296967 2.66914139 4.61081414 4.18486268 5.4765625 8.22265625 C5.75606335 12.62847235 5.43090351 14.45570083 2.625 18 C-1.05249134 20.80189817 -3.28308258 21.34922475 -7.96484375 21.28125 C-11.22946589 20.83009301 -12.81185064 19.38122136 -15 17 C-16.83548272 13.91305179 -17.00207001 12.11592056 -16.9375 8.5 C-15.8177994 4.31978443 -14.33213164 2.6974399 -11 0 C-7.12534507 -1.29155164 -3.8605882 -1.19422865 0 0 Z " fill="#101010" transform="translate(693,47)"/>
<path d="M0 0 C0.83595703 0.00451172 1.67191406 0.00902344 2.53320312 0.01367188 C4.58466649 0.02539452 6.63609273 0.04332797 8.6875 0.0625 C9.0175 1.0525 9.3475 2.0425 9.6875 3.0625 C8.78 3.578125 7.8725 4.09375 6.9375 4.625 C0.82159569 8.73098271 -1.52351926 16.52026325 -4.3125 23.0625 C-5.6325 22.0725 -6.9525 21.0825 -8.3125 20.0625 C-8.14492188 19.39863281 -7.97734375 18.73476562 -7.8046875 18.05078125 C-6.53458936 12.62566283 -6.53458936 12.62566283 -6.8125 7.125 C-8.85111562 4.32190353 -11.15220924 3.36783749 -14.3125 2.0625 C-14.3125 1.7325 -14.3125 1.4025 -14.3125 1.0625 C-9.54157044 -0.17152862 -4.88780554 -0.05015112 0 0 Z " fill="#101010" transform="translate(844.3125,82.9375)"/>
<path d="M0 0 C0.33 4.29 0.66 8.58 1 13 C2.155 11.9275 3.31 10.855 4.5 9.75 C12.41087796 2.84367797 20.98676769 -0.29338762 31.5625 -0.25 C32.82191406 -0.25515625 34.08132813 -0.2603125 35.37890625 -0.265625 C38.92232565 -0.00569779 41.70174788 0.71932275 45 2 C44.01 2.33 43.02 2.66 42 3 C41.34 2.67 40.68 2.34 40 2 C39.67 2.66 39.34 3.32 39 4 C38.505 3.01 38.505 3.01 38 2 C34.37 2 30.74 2 27 2 C27.495 2.99 27.495 2.99 28 4 C28 4.99 28 5.98 28 7 C28.99 7.66 29.98 8.32 31 9 C30.16597656 8.96519531 29.33195313 8.93039063 28.47265625 8.89453125 C20.56329758 8.70427176 14.18258541 9.29510156 7.12890625 12.9765625 C4.52336064 14.22913672 1.74263179 15.0857894 -1 16 C-1 11.05 -1 6.1 -1 1 C-1.99 1.495 -1.99 1.495 -3 2 C-4.99960012 2.039992 -7.00047242 2.04346799 -9 2 C-9 1.67 -9 1.34 -9 1 C-5.846632 0.29925156 -3.27275026 0 0 0 Z " fill="#161616" transform="translate(588,82)"/>
<path d="M0 0 C5 1 5 1 6.58203125 2.62890625 C6.98808594 3.26699219 7.39414062 3.90507812 7.8125 4.5625 C8.44091797 5.52349609 8.44091797 5.52349609 9.08203125 6.50390625 C9.38496094 6.99761719 9.68789063 7.49132812 10 8 C10.33 5.36 10.66 2.72 11 0 C12.32 0 13.64 0 15 0 C15 5.61 15 11.22 15 17 C10 16 10 16 8.41796875 14.37109375 C8.01191406 13.73300781 7.60585938 13.09492188 7.1875 12.4375 C6.76855469 11.79683594 6.34960938 11.15617188 5.91796875 10.49609375 C5.61503906 10.00238281 5.31210937 9.50867188 5 9 C4.67 11.64 4.34 14.28 4 17 C2.68 17 1.36 17 0 17 C0 11.39 0 5.78 0 0 Z " fill="#070707" transform="translate(590,202)"/>
<path d="M0 0 C8.3984375 -0.1953125 8.3984375 -0.1953125 11 0 C13 2 13 2 13.0625 5.3125 C13.041875 6.529375 13.02125 7.74625 13 9 C13.226875 9.9075 13.45375 10.815 13.6875 11.75 C14 14 14 14 12.875 15.62890625 C9.20623885 18.31168784 4.34797372 17.1534579 0 17 C0 11.39 0 5.78 0 0 Z M4 3 C4 4.32 4 5.64 4 7 C5.65 6.67 7.3 6.34 9 6 C8.67 5.01 8.34 4.02 8 3 C6.68 3 5.36 3 4 3 Z M4 10 C4 11.32 4 12.64 4 14 C5.65 14 7.3 14 9 14 C9 12.68 9 11.36 9 10 C7.35 10 5.7 10 4 10 Z " fill="#070707" transform="translate(488,202)"/>
<path d="M0 0 C2.76186603 2.02536842 4.66292254 3.53545656 5.453125 6.96875 C5.62610082 10.2800014 5.21317248 12.62926526 3.5625 15.5 C-0.26894936 17.74279963 -3.67599223 17.8771119 -8 17 C-11.0625 14.9375 -11.0625 14.9375 -13 12 C-13.625 8.5 -13.625 8.5 -13 5 C-9.17451963 0.24399738 -6.01202896 -2.00400965 0 0 Z M-7.75 4.1875 C-9.44316113 6.64258364 -9.4387102 8.07526531 -9 11 C-8 13 -8 13 -6 14 C-2.85078091 13.76716851 -2.85078091 13.76716851 0 13 C1.18845297 8.36976382 1.18845297 8.36976382 -0.1875 4.0625 C-2.91467698 2.46381005 -5.11603914 2.40016942 -7.75 4.1875 Z " fill="#070707" transform="translate(545,202)"/>
<path d="M0 0 C1.875 1.4375 1.875 1.4375 3 3 C3 3.66 3 4.32 3 5 C2.06027344 4.87431641 2.06027344 4.87431641 1.1015625 4.74609375 C-0.12433594 4.59333984 -0.12433594 4.59333984 -1.375 4.4375 C-2.59316406 4.28087891 -2.59316406 4.28087891 -3.8359375 4.12109375 C-6.04899186 3.81762672 -6.04899186 3.81762672 -8 5 C-8.04241723 7.33294775 -8.04092937 9.66702567 -8 12 C-6.9404123 13.28322547 -6.9404123 13.28322547 -4.5 13.125 C-2.0595877 13.28322547 -2.0595877 13.28322547 -1 12 C-2.32 11.34 -3.64 10.68 -5 10 C-4.67 9.01 -4.34 8.02 -4 7 C-1.69 7 0.62 7 3 7 C3.6875 8.6875 3.6875 8.6875 4 11 C2.85213059 13.24356294 1.7904233 15.2095767 0 17 C-4.26907775 17.5282226 -7.83259661 17.7588122 -11.5 15.375 C-13.35921047 12.43125008 -13.9288308 10.48729073 -14 7 C-11.27349049 0.48667172 -6.81410052 -2.07385668 0 0 Z " fill="#0C0C0C" transform="translate(625,202)"/>
<path d="M0 0 C1.54721252 3.36746254 1.57660188 5.64952407 1.0625 9.3125 C-0.875 12.25 -0.875 12.25 -3.9375 14.3125 C-8.26150777 15.1896119 -11.66855064 15.05529963 -15.5 12.8125 C-17.5066396 9.322692 -17.70607282 6.18610701 -16.9375 2.3125 C-15.26112718 -0.50141151 -14.03586462 -2.11938037 -11.125 -3.625 C-6.89067168 -3.74598081 -3.21322355 -2.79861406 0 0 Z M-12.9375 2.3125 C-13.4375 5.8125 -13.4375 5.8125 -12.9375 9.3125 C-10.18051816 11.59388945 -10.18051816 11.59388945 -7.375 11.125 C-4.60494883 10.47877558 -4.60494883 10.47877558 -2.9375 7.3125 C-3.02083333 4.72916667 -3.02083333 4.72916667 -3.9375 2.3125 C-7.94759099 -0.36089399 -8.92740901 -0.36089399 -12.9375 2.3125 Z " fill="#040404" transform="translate(524.9375,204.6875)"/>
<path d="M0 0 C1.588125 -0.061875 3.17625 -0.12375 4.8125 -0.1875 C6.15248047 -0.23970703 6.15248047 -0.23970703 7.51953125 -0.29296875 C10 0 10 0 11.84765625 1.37109375 C13 3 13 3 12.625 5.25 C12.41875 6.1575 12.2125 7.065 12 8 C12.185625 9.216875 12.37125 10.43375 12.5625 11.6875 C12.706875 12.780625 12.85125 13.87375 13 15 C11 17 11 17 8.3984375 17.1953125 C5.59895833 17.13020833 2.79947917 17.06510417 0 17 C0 11.39 0 5.78 0 0 Z M4 3 C4 4.32 4 5.64 4 7 C5.97536745 6.65213292 5.97536745 6.65213292 8 6 C8.33 5.34 8.66 4.68 9 4 C7.35 3.67 5.7 3.34 4 3 Z M3 10 C3 11.32 3 12.64 3 14 C4.98 14 6.96 14 9 14 C9 12.68 9 11.36 9 10 C7.02 10 5.04 10 3 10 Z " fill="#0F0F0F" transform="translate(419,202)"/>
<path d="M0 0 C9.08256881 -0.60550459 9.08256881 -0.60550459 13.125 2.0625 C15.50177019 5.78610663 15.77533825 7.65810577 15 12 C13.125 14.9375 13.125 14.9375 10 17 C6.55185569 17.41061871 3.49423937 17.23294929 0 17 C0 11.39 0 5.78 0 0 Z M4 3 C3.67 6.63 3.34 10.26 3 14 C7.34184202 13.81535634 7.34184202 13.81535634 11 12 C11.33338596 8.54187831 11.33338596 8.54187831 11 5 C8.04622502 2.63019987 8.04622502 2.63019987 4 3 Z " fill="#030303" transform="translate(794,202)"/>
<path d="M0 0 C1.51400391 0.01740234 1.51400391 0.01740234 3.05859375 0.03515625 C4.07050781 0.04417969 5.08242188 0.05320313 6.125 0.0625 C7.29869141 0.07990234 7.29869141 0.07990234 8.49609375 0.09765625 C8.49609375 1.08765625 8.49609375 2.07765625 8.49609375 3.09765625 C7.49609375 4.09765625 7.49609375 4.09765625 4.43359375 4.16015625 C3.46421875 4.13953125 2.49484375 4.11890625 1.49609375 4.09765625 C1.49609375 5.08765625 1.49609375 6.07765625 1.49609375 7.09765625 C3.47609375 7.09765625 5.45609375 7.09765625 7.49609375 7.09765625 C7.49609375 8.08765625 7.49609375 9.07765625 7.49609375 10.09765625 C5.51609375 10.09765625 3.53609375 10.09765625 1.49609375 10.09765625 C1.49609375 11.41765625 1.49609375 12.73765625 1.49609375 14.09765625 C3.80609375 14.09765625 6.11609375 14.09765625 8.49609375 14.09765625 C8.49609375 15.08765625 8.49609375 16.07765625 8.49609375 17.09765625 C6.68367323 17.12452904 4.87114142 17.1439934 3.05859375 17.16015625 C2.04925781 17.17175781 1.03992188 17.18335938 0 17.1953125 C-2.50390625 17.09765625 -2.50390625 17.09765625 -3.50390625 16.09765625 C-3.60365657 13.58629521 -3.64272808 11.1086221 -3.62890625 8.59765625 C-3.63277344 7.89511719 -3.63664063 7.19257813 -3.640625 6.46875 C-3.62843379 0.14151458 -3.62843379 0.14151458 0 0 Z " fill="#0C0C0C" transform="translate(661.50390625,201.90234375)"/>
<path d="M0 0 C1.32 0 2.64 0 4 0 C4.33 1.65 4.66 3.3 5 5 C5.556875 4.175 6.11375 3.35 6.6875 2.5 C9 0 9 0 11.75 -0.3125 C12.86375 -0.1578125 12.86375 -0.1578125 14 0 C12.57568513 3.06775511 11.09219926 5.21040099 9 8 C10.98 10.97 12.96 13.94 15 17 C10 17 10 17 8.41796875 15.6875 C7.27864583 14.125 6.13932292 12.5625 5 11 C4.67 12.98 4.34 14.96 4 17 C2.68 17 1.36 17 0 17 C0 11.39 0 5.78 0 0 Z " fill="#070707" transform="translate(557,202)"/>
<path d="M0 0 C1.65 0 3.3 0 5 0 C6.00419637 2.4566947 7.00350501 4.91518353 8 7.375 C8.28617187 8.07367188 8.57234375 8.77234375 8.8671875 9.4921875 C11 14.7734375 11 14.7734375 11 17 C9.68 17 8.36 17 7 17 C6.67 15.68 6.34 14.36 6 13 C3.69 13.33 1.38 13.66 -1 14 C-1.33 14.99 -1.66 15.98 -2 17 C-3.32 17 -4.64 17 -6 17 C-4.13236819 11.27789404 -2.14710968 5.62338249 0 0 Z M2 6 C1.67 7.32 1.34 8.64 1 10 C1.99 10 2.98 10 4 10 C3.67 8.68 3.34 7.36 3 6 C2.67 6 2.34 6 2 6 Z " fill="#0F0F0F" transform="translate(401,202)"/>
<path d="M0 0 C1.32 0 2.64 0 4 0 C5.0067004 2.26807204 6.00551766 4.53907754 7 6.8125 C7.28617188 7.45509766 7.57234375 8.09769531 7.8671875 8.75976562 C9.13711041 11.67756469 10 13.78265714 10 17 C8.0625 16.625 8.0625 16.625 6 16 C5.67 15.34 5.34 14.68 5 14 C2.08365871 13.7497843 2.08365871 13.7497843 -1 14 C-1.99 15.485 -1.99 15.485 -3 17 C-3.99 17 -4.98 17 -6 17 C-4.89061647 10.69403048 -3.06802099 5.62470514 0 0 Z M1 6 C0.67 7.32 0.34 8.64 0 10 C1.32 9.67 2.64 9.34 4 9 C3.01 8.01 2.02 7.02 1 6 Z " fill="#080808" transform="translate(740,202)"/>
<path d="M0 0 C3.96 0 7.92 0 12 0 C12 0.99 12 1.98 12 3 C9.69 3.33 7.38 3.66 5 4 C4.67 4.99 4.34 5.98 4 7 C6.31 7 8.62 7 11 7 C11 7.99 11 8.98 11 10 C8.69 10 6.38 10 4 10 C4 11.32 4 12.64 4 14 C6.64 14 9.28 14 12 14 C12 14.99 12 15.98 12 17 C8.04 17 4.08 17 0 17 C0 11.39 0 5.78 0 0 Z " fill="#080808" transform="translate(696,202)"/>
<path d="M0 0 C3.96 0 7.92 0 12 0 C12 0.99 12 1.98 12 3 C9.36 3 6.72 3 4 3 C4 4.32 4 5.64 4 7 C6.31 7 8.62 7 11 7 C11 7.99 11 8.98 11 10 C8.69 10 6.38 10 4 10 C4 11.32 4 12.64 4 14 C6.64 14 9.28 14 12 14 C12 14.99 12 15.98 12 17 C8.04 17 4.08 17 0 17 C0 11.39 0 5.78 0 0 Z " fill="#080808" transform="translate(457,202)"/>
<path d="M0 0 C3.63 0 7.26 0 11 0 C11.33 0.99 11.66 1.98 12 3 C9.36 3.33 6.72 3.66 4 4 C4 4.66 4 5.32 4 6 C6.31 6.33 8.62 6.66 11 7 C11 7.99 11 8.98 11 10 C8.36 10 5.72 10 3 10 C3 11.32 3 12.64 3 14 C5.64 14 8.28 14 11 14 C11 14.99 11 15.98 11 17 C7.37 17 3.74 17 0 17 C0 11.39 0 5.78 0 0 Z " fill="#0A0A0A" transform="translate(775,202)"/>
<path d="M0 0 C1.32 0 2.64 0 4 0 C5.32 3.3 6.64 6.6 8 10 C9.32 6.7 10.64 3.4 12 0 C13.32 0 14.64 0 16 0 C15.34496718 4.05819183 14.05440879 7.53971282 12.4375 11.3125 C11.98246094 12.38113281 11.52742187 13.44976562 11.05859375 14.55078125 C10.70925781 15.35902344 10.35992188 16.16726562 10 17 C7.67578125 16.8984375 7.67578125 16.8984375 5 16 C3.41796875 13.1640625 3.41796875 13.1640625 2.1875 9.625 C1.76855469 8.46226562 1.34960938 7.29953125 0.91796875 6.1015625 C0 3 0 3 0 0 Z " fill="#060606" transform="translate(714,202)"/>
<path d="M0 0 C4.62 0 9.24 0 14 0 C14 0.99 14 1.98 14 3 C12.68 3.33 11.36 3.66 10 4 C9.67 8.29 9.34 12.58 9 17 C7.68 17 6.36 17 5 17 C4.67 12.71 4.34 8.42 4 4 C2.68 3.67 1.36 3.34 0 3 C0 2.01 0 1.02 0 0 Z " fill="#040404" transform="translate(754,202)"/>
<path d="M0 0 C4.95 0 9.9 0 15 0 C15 0.99 15 1.98 15 3 C13.35 3 11.7 3 10 3 C10 7.62 10 12.24 10 17 C8.68 17 7.36 17 6 17 C5.67 12.71 5.34 8.42 5 4 C3.35 3.67 1.7 3.34 0 3 C0 2.01 0 1.02 0 0 Z " fill="#101010" transform="translate(377,202)"/>
<path d="M0 0 C2.4375 0.6875 2.4375 0.6875 5 2 C5.66015625 4.58203125 5.66015625 4.58203125 6 7 C0.17745757 8.96818336 -4.83381819 10.40214229 -11 10 C-10.34 9.01 -9.68 8.02 -9 7 C-10.98 7 -12.96 7 -15 7 C-12.09977227 5.06651484 -9.64763813 4.07299318 -6.375 2.9375 C-2.91428137 1.93374305 -2.91428137 1.93374305 0 0 Z " fill="#161616" transform="translate(452,157)"/>
<path d="M0 0 C1.32 0 2.64 0 4 0 C4 4.62 4 9.24 4 14 C6.64 14 9.28 14 12 14 C12 14.99 12 15.98 12 17 C8.04 17 4.08 17 0 17 C0 11.39 0 5.78 0 0 Z " fill="#060606" transform="translate(439,202)"/>
<path d="M0 0 C1.32 0 2.64 0 4 0 C4 4.62 4 9.24 4 14 C6.31 14 8.62 14 11 14 C11 14.99 11 15.98 11 17 C7.37 17 3.74 17 0 17 C0 11.39 0 5.78 0 0 Z " fill="#060606" transform="translate(678,202)"/>
<path d="M0 0 C1.32 0 2.64 0 4 0 C4 2.97 4 5.94 4 9 C4.928125 9.144375 5.85625 9.28875 6.8125 9.4375 C10 10 10 10 13 11 C13.99 8.69 14.98 6.38 16 4 C16.33 4 16.66 4 17 4 C16.52264808 10.32491289 16.52264808 10.32491289 14.5 12.9375 C10.66184157 14.56871733 7.1003008 14.65454343 3 14 C0.4375 12.5 0.4375 12.5 -1 10 C-1.46807221 6.51699208 -1.60551137 3.21102274 0 0 Z M6 12 C6 12.33 6 12.66 6 13 C7.65 13 9.3 13 11 13 C11 12.67 11 12.34 11 12 C9.35 12 7.7 12 6 12 Z " fill="#0D0D0D" transform="translate(509,205)"/>
<path d="M0 0 C1.32 0 2.64 0 4 0 C4 5.61 4 11.22 4 17 C2.68 17 1.36 17 0 17 C0 11.39 0 5.78 0 0 Z " fill="#090909" transform="translate(578,202)"/>
<path d="M0 0 C2.40921705 2.40921705 3.53812156 4.94334509 5 8 C4.34 8.66 3.68 9.32 3 10 C2.66983494 12.09980044 2.66983494 12.09980044 2.68115234 14.54150391 C2.66128265 15.48232819 2.64141296 16.42315247 2.62094116 17.39248657 C2.60938995 18.41023163 2.59783875 19.42797668 2.5859375 20.4765625 C2.56657135 21.51694672 2.5472052 22.55733093 2.5272522 23.62924194 C2.46734273 26.9610772 2.42102548 30.29294679 2.375 33.625 C2.3368307 35.88022363 2.2977796 38.13543252 2.2578125 40.390625 C2.16163201 45.92695275 2.07661804 51.46336885 2 57 C1.67 57 1.34 57 1 57 C0.67 38.19 0.34 19.38 0 0 Z " fill="#050505" transform="translate(570,94)"/>
<path d="M0 0 C0.33 0.99 0.66 1.98 1 3 C0 4 0 4 -1.94946289 4.11352539 C-2.7821167 4.10828857 -3.61477051 4.10305176 -4.47265625 4.09765625 C-5.37177734 4.09443359 -6.27089844 4.09121094 -7.19726562 4.08789062 C-8.14279297 4.07951172 -9.08832031 4.07113281 -10.0625 4.0625 C-11.01189453 4.05798828 -11.96128906 4.05347656 -12.93945312 4.04882812 C-15.29303065 4.0370011 -17.64648477 4.02052025 -20 4 C-20.33 5.32 -20.66 6.64 -21 8 C-21.125 5.625 -21.125 5.625 -21 3 C-19 1 -19 1 -17.13647461 0.78881836 C-16.39921143 0.80565674 -15.66194824 0.82249512 -14.90234375 0.83984375 C-13.70061523 0.8562793 -13.70061523 0.8562793 -12.47460938 0.87304688 C-11.63736328 0.89431641 -10.80011719 0.91558594 -9.9375 0.9375 C-6.95429282 0.99922153 -3.98474033 1.02058442 -1 1 C-0.67 0.67 -0.34 0.34 0 0 Z " fill="#151515" transform="translate(762,84)"/>
<path d="M0 0 C0.33 4.29 0.66 8.58 1 13 C4.96 9.535 4.96 9.535 9 6 C9.66 6.33 10.32 6.66 11 7 C11 8.32 11 9.64 11 11 C6.99108518 13.09990776 3.35010863 14.54996379 -1 16 C-1 11.05 -1 6.1 -1 1 C-1.99 1.495 -1.99 1.495 -3 2 C-4.99960012 2.039992 -7.00047242 2.04346799 -9 2 C-9 1.67 -9 1.34 -9 1 C-5.846632 0.29925156 -3.27275026 0 0 0 Z " fill="#1B1B1B" transform="translate(588,82)"/>
<path d="M0 0 C1.60332791 -0.08121924 3.20784026 -0.13929134 4.8125 -0.1875 C6.15248047 -0.23970703 6.15248047 -0.23970703 7.51953125 -0.29296875 C10 0 10 0 11.84375 1.375 C13 3 13 3 12.6875 5.1875 C12.3471875 6.0846875 12.3471875 6.0846875 12 7 C10.68 7.33 9.36 7.66 8 8 C7.938125 7.38125 7.87625 6.7625 7.8125 6.125 C7.171081 3.72238859 7.171081 3.72238859 4.4375 2.75 C3.633125 2.5025 2.82875 2.255 2 2 C2 3.98 2 5.96 2 8 C0.23537317 4.91190305 0 3.76687864 0 0 Z " fill="#0A0A0A" transform="translate(419,202)"/>
<path d="M0 0 C1.32 0 2.64 0 4 0 C4 5.61 4 11.22 4 17 C3.01 16.67 2.02 16.34 1 16 C-0.12862175 10.63904667 -0.09688221 5.44693314 0 0 Z " fill="#040404" transform="translate(601,202)"/>
<path d="M0 0 C2.31 0 4.62 0 7 0 C7.6875 1.6875 7.6875 1.6875 8 4 C6.85213059 6.24356294 5.7904233 8.2095767 4 10 C1.66702567 10.04092937 -0.66705225 10.04241723 -3 10 C-3 9.67 -3 9.34 -3 9 C-1.35 8.67 0.3 8.34 2 8 C2.33 7.01 2.66 6.02 3 5 C1.68 4.34 0.36 3.68 -1 3 C-0.67 2.01 -0.34 1.02 0 0 Z " fill="#111111" transform="translate(621,209)"/>
<path d="M0 0 C1.51400391 0.01740234 1.51400391 0.01740234 3.05859375 0.03515625 C4.07050781 0.04417969 5.08242188 0.05320313 6.125 0.0625 C7.29869141 0.07990234 7.29869141 0.07990234 8.49609375 0.09765625 C8.49609375 1.08765625 8.49609375 2.07765625 8.49609375 3.09765625 C5.85609375 3.09765625 3.21609375 3.09765625 0.49609375 3.09765625 C0.49609375 4.41765625 0.49609375 5.73765625 0.49609375 7.09765625 C3.46609375 7.59265625 3.46609375 7.59265625 6.49609375 8.09765625 C6.49609375 8.42765625 6.49609375 8.75765625 6.49609375 9.09765625 C4.82546875 9.31421875 4.82546875 9.31421875 3.12109375 9.53515625 C-0.32532672 9.8813766 -0.32532672 9.8813766 -2.50390625 11.09765625 C-2.69797103 9.45258407 -2.8839856 7.80656031 -3.06640625 6.16015625 C-3.17082031 5.24363281 -3.27523437 4.32710937 -3.3828125 3.3828125 C-3.42277344 2.62871094 -3.46273437 1.87460938 -3.50390625 1.09765625 C-2.50390625 0.09765625 -2.50390625 0.09765625 0 0 Z " fill="#0C0D0D" transform="translate(661.50390625,201.90234375)"/>
<path d="M0 0 C0.99 0.99 1.98 1.98 3 3 C2.01 3.495 2.01 3.495 1 4 C1 4.99 1 5.98 1 7 C3.97 7.495 3.97 7.495 7 8 C3.375 11 3.375 11 0 11 C-0.33 11.99 -0.66 12.98 -1 14 C-2.32 14 -3.64 14 -5 14 C-3.45730076 9.27934033 -1.92205381 4.58335908 0 0 Z " fill="#020202" transform="translate(400,205)"/>
<path d="M0 0 C0.66 0.66 1.32 1.32 2 2 C0.35 2 -1.3 2 -3 2 C-3.33 2.66 -3.66 3.32 -4 4 C-16.87 3.505 -16.87 3.505 -30 3 C-30 2.67 -30 2.34 -30 2 C-29.32420898 1.94465088 -28.64841797 1.88930176 -27.95214844 1.83227539 C-24.88447302 1.57909469 -21.81724404 1.3208521 -18.75 1.0625 C-17.15478516 0.93198242 -17.15478516 0.93198242 -15.52734375 0.79882812 C-14.50253906 0.71181641 -13.47773438 0.62480469 -12.421875 0.53515625 C-11.00793457 0.41732788 -11.00793457 0.41732788 -9.56542969 0.29711914 C-7.04521554 0.07210062 -7.04521554 0.07210062 -4.84863281 -0.59594727 C-3 -1 -3 -1 0 0 Z " fill="#080808" transform="translate(444,164)"/>
<path d="M0 0 C0.66 0 1.32 0 2 0 C2 2.64 2 5.28 2 8 C2.33 6.35 2.66 4.7 3 3 C3.8353125 4.2065625 3.8353125 4.2065625 4.6875 5.4375 C7.21864487 8.24228216 8.32579134 8.69381595 12 9 C12 9.99 12 10.98 12 12 C7.70892835 12.4206933 5.64865463 12.45543836 2.0625 9.9375 C-0.45543836 6.35134537 -0.4206933 4.29107165 0 0 Z " fill="#0E0E0E" transform="translate(532,207)"/>
<path d="M0 0 C5 1 5 1 6.8125 3.0625 C7.204375 3.701875 7.59625 4.34125 8 5 C7.67 5.66 7.34 6.32 7 7 C5.68 6.67 4.36 6.34 3 6 C3 7.65 3 9.3 3 11 C2.67 11 2.34 11 2 11 C1.67 12.65 1.34 14.3 1 16 C0.67 16 0.34 16 0 16 C0 10.72 0 5.44 0 0 Z " fill="#0A0A0A" transform="translate(590,202)"/>
<path d="M0 0 C2.31 0.66 4.62 1.32 7 2 C7 2.66 7 3.32 7 4 C-5.21 4 -17.42 4 -30 4 C-30 3.67 -30 3.34 -30 3 C-19.77 3 -9.54 3 1 3 C0.67 2.01 0.34 1.02 0 0 Z " fill="#1B1B1B" transform="translate(652,164)"/>
<path d="M0 0 C3.375 0.3125 3.375 0.3125 7 1 C9.14915785 4.22373677 9.38286803 5.26703674 9 9 C8.34 9.66 7.68 10.32 7 11 C6.01 10.67 5.02 10.34 4 10 C4.33 8.35 4.66 6.7 5 5 C3.7625 4.319375 3.7625 4.319375 2.5 3.625 C1.675 3.08875 0.85 2.5525 0 2 C0 1.34 0 0.68 0 0 Z " fill="#1F1E1C" transform="translate(286,177)"/>
<path d="M0 0 C0.66 1.32 1.32 2.64 2 4 C-1.66047321 6.39338633 -3.8131852 5.78996506 -8 5 C-9.52097365 4.99731277 -11.04213007 5.01956597 -12.5625 5.0625 C-16.15492365 5.11711455 -18.75219683 4.67628551 -22 3 C-19 2 -19 2 -16 3 C-10.05749925 3.47540006 -5.46656695 2.08250169 0 0 Z " fill="#1A1A1A" transform="translate(805,180)"/>
<path d="M0 0 C-0.33 0.66 -0.66 1.32 -1 2 C-3.44140625 2.4140625 -3.44140625 2.4140625 -6.5625 2.625 C-7.6453125 2.69976562 -8.728125 2.77453125 -9.84375 2.8515625 C-12.42632786 2.97302037 -14.97843991 3.02892605 -17.5625 3 C-20.9835298 2.81882784 -20.9835298 2.81882784 -24 4 C-24.66 3.67 -25.32 3.34 -26 3 C-26 2.34 -26 1.68 -26 1 C-17.31008699 0.20354316 -8.72542301 -0.12852505 0 0 Z " fill="#252525" transform="translate(793,83)"/>
<path d="M0 0 C2.64 0.66 5.28 1.32 8 2 C8 2.99 8 3.98 8 5 C0.08 5 -7.84 5 -16 5 C-16 4.67 -16 4.34 -16 4 C-8.08 3.505 -8.08 3.505 0 3 C0 2.01 0 1.02 0 0 Z " fill="#161616" transform="translate(699,163)"/>
<path d="M0 0 C0.99 0.33 1.98 0.66 3 1 C4.1875 3.5625 4.1875 3.5625 5 6 C5.66 6 6.32 6 7 6 C7.66 5.34 8.32 4.68 9 4 C10.60080151 8.00200378 9.29279692 11.04556236 8 15 C7.34 15 6.68 15 6 15 C5.73445312 14.25234375 5.46890625 13.5046875 5.1953125 12.734375 C4.84210937 11.74953125 4.48890625 10.7646875 4.125 9.75 C3.77695312 8.77546875 3.42890625 7.8009375 3.0703125 6.796875 C2.16725355 4.43705673 1.17921582 2.23094884 0 0 Z " fill="#AF9977" transform="translate(522,52)"/>
<path d="M0 0 C8.57142857 -0.28571429 8.57142857 -0.28571429 12 2 C10.02 2.99 10.02 2.99 8 4 C8 4.66 8 5.32 8 6 C5.36 5.67 2.72 5.34 0 5 C0.33 4.01 0.66 3.02 1 2 C0.67 1.34 0.34 0.68 0 0 Z " fill="#191919" transform="translate(436,45)"/>
<path d="M0 0 C1.134375 0.020625 2.26875 0.04125 3.4375 0.0625 C3.4375 0.7225 3.4375 1.3825 3.4375 2.0625 C1.4575 2.0625 -0.5225 2.0625 -2.5625 2.0625 C-2.5625 3.0525 -2.5625 4.0425 -2.5625 5.0625 C-0.5825 5.0625 1.3975 5.0625 3.4375 5.0625 C3.4375 6.0525 3.4375 7.0425 3.4375 8.0625 C2.014375 8.2171875 2.014375 8.2171875 0.5625 8.375 C-2.85357501 8.74789295 -2.85357501 8.74789295 -4.5625 12.0625 C-4.376875 11.175625 -4.19125 10.28875 -4 9.375 C-3.58039594 6.19799782 -3.85943468 4.13841077 -4.5625 1.0625 C-3.5625 0.0625 -3.5625 0.0625 0 0 Z " fill="#1E1F1E" transform="translate(665.5625,203.9375)"/>
<path d="M0 0 C0 1.32 0 2.64 0 4 C-0.66 4 -1.32 4 -2 4 C-2.33 4.66 -2.66 5.32 -3 6 C-5.16874252 5.49396008 -6.99967627 5.00016187 -9 4 C-8.67 3.01 -8.34 2.02 -8 1 C-5.07175348 0.02391783 -3.04386724 -0.08226668 0 0 Z " fill="#080808" transform="translate(462,54)"/>
<path d="M0 0 C-0.99 0.33 -1.98 0.66 -3 1 C-3.33 1.66 -3.66 2.32 -4 3 C-3.01 3.33 -2.02 3.66 -1 4 C-3.97 4.66 -6.94 5.32 -10 6 C-10.33 5.34 -10.66 4.68 -11 4 C-8.14317358 -0.28523962 -4.97227354 -1.84158279 0 0 Z " fill="#0D0D0D" transform="translate(609,85)"/>
<path d="M0 0 C0.66 0 1.32 0 2 0 C2.66 3.3 3.32 6.6 4 10 C3.34 10 2.68 10 2 10 C2 9.34 2 8.68 2 8 C1.34 8 0.68 8 0 8 C0 8.66 0 9.32 0 10 C-0.66 10 -1.32 10 -2 10 C-1.34 6.7 -0.68 3.4 0 0 Z " fill="#B19C7B" transform="translate(528,27)"/>
<path d="M0 0 C2 2 2 2 3 7 C-0.3 6.01 -3.6 5.02 -7 4 C-6 2 -6 2 -2.9375 0.875 C-1.4834375 0.441875 -1.4834375 0.441875 0 0 Z " fill="#B29977" transform="translate(518,44)"/>
<path d="M0 0 C0.66 0 1.32 0 2 0 C2.05416188 1.60379341 2.09286638 3.20811406 2.125 4.8125 C2.14820313 5.70582031 2.17140625 6.59914062 2.1953125 7.51953125 C2 10 2 10 0 13 C-0.99 13.495 -0.99 13.495 -2 14 C-2 11.36 -2 8.72 -2 6 C-1.67 6 -1.34 6 -1 6 C-0.67 4.02 -0.34 2.04 0 0 Z " fill="#0C0C0C" transform="translate(796,204)"/>
<path d="M0 0 C1.98 1.32 3.96 2.64 6 4 C2.81237635 6.12508244 0.73487777 6.5020163 -3 7 C-3.1875 4.625 -3.1875 4.625 -3 2 C-2.01 1.34 -1.02 0.68 0 0 Z " fill="#161616" transform="translate(403,159)"/>
<path d="M0 0 C0.33 0.66 0.66 1.32 1 2 C-0.65 2 -2.3 2 -4 2 C-3.34 3.32 -2.68 4.64 -2 6 C-5.0831351 4.80100302 -8.06279492 3.52299523 -11 2 C-11 1.67 -11 1.34 -11 1 C-7.26562152 0.12132271 -3.83225427 -0.08912219 0 0 Z " fill="#1F1F1F" transform="translate(841,83)"/>
<path d="M0 0 C-0.99 0.66 -1.98 1.32 -3 2 C-3 2.66 -3 3.32 -3 4 C-3.66386719 3.9278125 -4.32773437 3.855625 -5.01171875 3.78125 C-5.89472656 3.6884375 -6.77773438 3.595625 -7.6875 3.5 C-8.55761719 3.4071875 -9.42773438 3.314375 -10.32421875 3.21875 C-12.89723339 3.00840136 -15.41984364 2.96280856 -18 3 C-14.69541291 1.10824362 -11.61991762 0.42438457 -7.875 -0.1875 C-6.29332031 -0.45626953 -6.29332031 -0.45626953 -4.6796875 -0.73046875 C-2 -1 -2 -1 0 0 Z " fill="#181818" transform="translate(696,83)"/>
<path d="M0 0 C0.33 0 0.66 0 1 0 C1 1.65 1 3.3 1 5 C2.3921875 4.6596875 2.3921875 4.6596875 3.8125 4.3125 C4.864375 4.209375 5.91625 4.10625 7 4 C7.99 4.99 8.98 5.98 10 7 C6.37 7 2.74 7 -1 7 C-0.67 4.69 -0.34 2.38 0 0 Z " fill="#090909" transform="translate(420,212)"/>
<path d="M0 0 C3.63 0 7.26 0 11 0 C11.33 0.99 11.66 1.98 12 3 C4.5 3.375 4.5 3.375 0 0 Z " fill="#020202" transform="translate(775,202)"/>
<path d="M0 0 C1.32 1.32 2.64 2.64 4 4 C2.02 4.99 2.02 4.99 0 6 C0 5.34 0 4.68 0 4 C-0.99 4.33 -1.98 4.66 -3 5 C-5.1875 4.0625 -5.1875 4.0625 -7 3 C-4.69 2.01 -2.38 1.02 0 0 Z " fill="#070707" transform="translate(460,155)"/>
<path d="M0 0 C2 2 2 2 2.13525391 4.24658203 C2.08288574 5.15778809 2.03051758 6.06899414 1.9765625 7.0078125 C1.89921875 8.48701172 1.89921875 8.48701172 1.8203125 9.99609375 C1.75585938 11.02863281 1.69140625 12.06117187 1.625 13.125 C1.56828125 14.16527344 1.5115625 15.20554687 1.453125 16.27734375 C1.31138791 18.85223418 1.15995446 21.4261874 1 24 C0.67 24 0.34 24 0 24 C0 17.07 0 10.14 0 3 C-0.66 2.67 -1.32 2.34 -2 2 C-1.34 1.34 -0.68 0.68 0 0 Z " fill="#050505" transform="translate(740,59)"/>
<path d="M0 0 C0.625 2.3125 0.625 2.3125 1 5 C0.01 6.485 0.01 6.485 -1 8 C-1.268125 7.236875 -1.53625 6.47375 -1.8125 5.6875 C-2.94424112 3.12619116 -3.91223401 1.80307062 -6 0 C-3.50907189 -1.24546405 -2.58919267 -0.7767578 0 0 Z " fill="#090909" transform="translate(807,204)"/>
<path d="M0 0 C0.66 0.99 1.32 1.98 2 3 C-1.14864995 4.57432497 -3.64487425 3.71895552 -7 3 C-7.66 2.01 -8.32 1.02 -9 0 C-5.46474216 -1.17841928 -3.5797952 -0.91399027 0 0 Z " fill="#050505" transform="translate(625,202)"/>
<path d="M0 0 C0.99 0.66 1.98 1.32 3 2 C2.67 3.98 2.34 5.96 2 8 C1.01 8.33 0.02 8.66 -1 9 C-2.25541557 5.23375329 -1.37061958 3.62811066 0 0 Z " fill="#080808" transform="translate(475,126)"/>
<path d="M0 0 C-2.98646769 1.99097846 -5.59687262 2.94124926 -9 4 C-8.67 2.35 -8.34 0.7 -8 -1 C-4.37673261 -2.2077558 -3.35853631 -1.54311128 0 0 Z " fill="#B09976" transform="translate(547,47)"/>
<path d="M0 0 C1.24546405 2.49092811 0.7767578 3.41080733 0 6 C1.32 6.33 2.64 6.66 4 7 C3.01 7 2.02 7 1 7 C0.67 7.99 0.34 8.98 0 10 C-1.32 10 -2.64 10 -4 10 C-3.52449439 8.51965236 -3.04448784 7.04074979 -2.5625 5.5625 C-2.29566406 4.73878906 -2.02882813 3.91507813 -1.75390625 3.06640625 C-1 1 -1 1 0 0 Z " fill="#0A0A0A" transform="translate(399,209)"/>
<path d="M0 0 C2.0625 0.4375 2.0625 0.4375 4 1 C3.34 2.98 2.68 4.96 2 7 C1.01 7 0.02 7 -1 7 C-1.04254356 5.00045254 -1.04080783 2.99958364 -1 1 C-0.67 0.67 -0.34 0.34 0 0 Z " fill="#070707" transform="translate(636,215)"/>
<path d="M0 0 C2 3 2 3 1.3125 6.625 C0.879375 7.73875 0.44625 8.8525 0 10 C-0.99 10.33 -1.98 10.66 -3 11 C-2.44894091 7.0507432 -1.61064629 3.65079826 0 0 Z " fill="#D3D0CB" transform="translate(156,125)"/>
<path d="M0 0 C0 0.99 0 1.98 0 3 C-2.64 3 -5.28 3 -8 3 C-8.33 4.65 -8.66 6.3 -9 8 C-9.33 8 -9.66 8 -10 8 C-10 5.69 -10 3.38 -10 1 C-6.59437148 0.22157062 -3.49234244 -0.09978121 0 0 Z " fill="#040505" transform="translate(670,202)"/>
<path d="M0 0 C2.97 0.33 5.94 0.66 9 1 C7.02 1.99 7.02 1.99 5 3 C4.01 2.67 3.02 2.34 2 2 C2 3.98 2 5.96 2 8 C0.23537317 4.91190305 0 3.76687864 0 0 Z " fill="#040404" transform="translate(419,202)"/>
<path d="M0 0 C1.4540625 0.0309375 1.4540625 0.0309375 2.9375 0.0625 C1.9475 0.3925 0.9575 0.7225 -0.0625 1.0625 C-0.79573796 3.07758358 -0.79573796 3.07758358 -1.0625 5.0625 C-2.7125 5.0625 -4.3625 5.0625 -6.0625 5.0625 C-3.64893617 0.07446809 -3.64893617 0.07446809 0 0 Z " fill="#242320" transform="translate(143.0625,176.9375)"/>
<path d="M0 0 C0.33 0.66 0.66 1.32 1 2 C3.02463255 2.65213292 3.02463255 2.65213292 5 3 C4 4 4 4 1.93359375 4.09765625 C1.10988281 4.08605469 0.28617187 4.07445312 -0.5625 4.0625 C-1.38878906 4.05347656 -2.21507812 4.04445312 -3.06640625 4.03515625 C-3.70449219 4.02355469 -4.34257812 4.01195312 -5 4 C-5 3.34 -5 2.68 -5 2 C-3.35 1.34 -1.7 0.68 0 0 Z " fill="#070707" transform="translate(409,163)"/>
<path d="M0 0 C1.10844919 3.32534757 0.84454356 5.62182575 0 9 C-1.32 9 -2.64 9 -4 9 C-4.33 9.66 -4.66 10.32 -5 11 C-5.99 10.34 -6.98 9.68 -8 9 C-7.236875 8.814375 -6.47375 8.62875 -5.6875 8.4375 C-1.81384272 6.36554378 -1.43454737 4.07713462 0 0 Z " fill="#171717" transform="translate(382,156)"/>
<path d="M0 0 C0.66 0 1.32 0 2 0 C1.67 1.65 1.34 3.3 1 5 C0.34 5 -0.32 5 -1 5 C-1.33 5.66 -1.66 6.32 -2 7 C-2.66 6.67 -3.32 6.34 -4 6 C-3.67 4.35 -3.34 2.7 -3 1 C-2.01 1.33 -1.02 1.66 0 2 C0 1.34 0 0.68 0 0 Z " fill="#050505" transform="translate(827,132)"/>
<path d="M0 0 C-0.33 0.99 -0.66 1.98 -1 3 C-5.455 2.01 -5.455 2.01 -10 1 C-10 0.67 -10 0.34 -10 0 C-6.33694766 -0.74926071 -3.57644848 -1.2380014 0 0 Z " fill="#0A0A0A" transform="translate(524,204)"/>
<path d="M0 0 C1.33333333 0 2.66666667 0 4 0 C4 1.65 4 3.3 4 5 C3.01 5.33 2.02 5.66 1 6 C0.01 5.01 -0.98 4.02 -2 3 C-1.34 2.67 -0.68 2.34 0 2 C0 1.34 0 0.68 0 0 Z " fill="#050505" transform="translate(840,92)"/>
<path d="M0 0 C1.98 0.99 3.96 1.98 6 3 C5.67 3.66 5.34 4.32 5 5 C3.68 4.67 2.36 4.34 1 4 C1 5.65 1 7.3 1 9 C0.67 9 0.34 9 0 9 C0 6.03 0 3.06 0 0 Z " fill="#141414" transform="translate(592,204)"/>
<path d="M0 0 C0.33 0 0.66 0 1 0 C1.92470553 4.71599818 2.22923777 7.67265609 0 12 C-0.66 11.67 -1.32 11.34 -2 11 C-2 9.35 -2 7.7 -2 6 C-1.34 6 -0.68 6 0 6 C0 4.02 0 2.04 0 0 Z " fill="#D0CBC4" transform="translate(138,148)"/>
<path d="M0 0 C2.97 0 5.94 0 9 0 C9 0.66 9 1.32 9 2 C5.67465243 3.10844919 3.37817425 2.84454356 0 2 C0 1.34 0 0.68 0 0 Z " fill="#323232" transform="translate(843,83)"/>
<path d="M0 0 C3.68754757 0.49831724 5.60490662 1.10067643 8 4 C5.36 4 2.72 4 0 4 C0 2.68 0 1.36 0 0 Z " fill="#0F0F0F" transform="translate(696,215)"/>
<path d="M0 0 C1.98 0 3.96 0 6 0 C6 0.99 6 1.98 6 3 C4.125 3.625 4.125 3.625 2 4 C1.34 3.34 0.68 2.68 0 2 C0 1.34 0 0.68 0 0 Z " fill="#0A0A0A" transform="translate(762,202)"/>
<path d="M0 0 C0.598125 0.350625 1.19625 0.70125 1.8125 1.0625 C0.8225 2.0525 -0.1675 3.0425 -1.1875 4.0625 C-2.5075 2.7425 -3.8275 1.4225 -5.1875 0.0625 C-2.1875 -0.9375 -2.1875 -0.9375 0 0 Z " fill="#E0DCD4" transform="translate(259.1875,83.9375)"/>
<path d="M0 0 C2.7839183 1.39195915 2.97898997 3.15575779 4 6 C2.35 6 0.7 6 -1 6 C-0.67 4.02 -0.34 2.04 0 0 Z " fill="#0D0D0D" transform="translate(719,209)"/>
<path d="M0 0 C1.32 0 2.64 0 4 0 C2.25 4.875 2.25 4.875 0 6 C0 4.02 0 2.04 0 0 Z " fill="#020202" transform="translate(557,202)"/>
<path d="M0 0 C0.556875 0.144375 1.11375 0.28875 1.6875 0.4375 C4.11384195 1.02769128 6.54906345 1.523429 9 2 C9 2.33 9 2.66 9 3 C5.7 3 2.4 3 -1 3 C-0.67 2.01 -0.34 1.02 0 0 Z " fill="#222222" transform="translate(561,165)"/>
</svg>
